<?xml version="1.0" encoding="utf-8"?>
<!-- Generator: Adobe Illustrator 20.0.0, SVG Export Plug-In . SVG Version: 6.00 Build 0)  -->
<svg version="1.1" id="instagram" xmlns="http://www.w3.org/2000/svg" xmlns:xlink="http://www.w3.org/1999/xlink" x="0px" y="0px"
	 viewBox="0 0 28.1 28.1" style="enable-background:new 0 0 28.1 28.1;" xml:space="preserve">
<style type="text/css">
	.st0{fill:none;stroke:#000000;stroke-miterlimit:10;}
</style>
<path id="circle" class="st0" d="M27.6,14.1c0,7.5-6,13.5-13.5,13.5s-13.5-6-13.5-13.5s6-13.5,13.5-13.5S27.6,6.6,27.6,14.1"/>
<g id="logo-shape">
	<circle id="logo-shape-b_1_" cx="14.1" cy="14.1" r="2.6"/>
	<path id="logo-shape-a" d="M22,10.8c0-0.8-0.2-1.4-0.4-1.9c-0.2-0.5-0.5-1-0.9-1.4s-0.9-0.7-1.4-0.9c-0.5-0.2-1.1-0.3-1.9-0.4
		c-0.8,0-1.1,0-3.3,0s-2.4,0-3.3,0c-0.8,0-1.4,0.2-1.9,0.4C8.3,6.7,7.9,7,7.5,7.5C7,7.9,6.7,8.3,6.5,8.9C6.3,9.4,6.2,10,6.1,10.8
		c0,0.8,0,1.1,0,3.3s0,2.4,0,3.3c0,0.8,0.2,1.4,0.4,1.9c0.2,0.5,0.5,1,0.9,1.4s0.9,0.7,1.4,0.9c0.5,0.2,1.1,0.3,1.9,0.4
		c0.8,0,1.1,0,3.3,0s2.4,0,3.3,0c0.8,0,1.4-0.2,1.9-0.4c0.5-0.2,1-0.5,1.4-0.9s0.7-0.9,0.9-1.4c0.2-0.5,0.3-1.1,0.4-1.9
		c0-0.8,0-1.1,0-3.3C22,11.9,22,11.6,22,10.8z M14.1,18.1c-2.3,0-4.1-1.8-4.1-4.1s1.8-4.1,4.1-4.1s4.1,1.8,4.1,4.1
		C18.1,16.3,16.3,18.1,14.1,18.1z M18.3,10.8c-0.5,0-1-0.4-1-1s0.4-1,1-1s1,0.4,1,1S18.8,10.8,18.3,10.8z"/>
</g>
</svg>
