<svg version="1.1" id="LinkedIn" xmlns="http://www.w3.org/2000/svg" xmlns:xlink="http://www.w3.org/1999/xlink" x="0px" y="0px"
	 viewBox="0 0 28 28" style="enable-background:new 0 0 28 28;" xml:space="preserve">
<path id="circle" style="fill:none;stroke:#000000;stroke-miterlimit:10;" d="M27.5,14c0,7.5-6,13.5-13.5,13.5
	c-7.5,0-13.5-6-13.5-13.5c0-7.5,6-13.5,13.5-13.5C21.5,0.5,27.5,6.5,27.5,14"/>
<g id="logo-shape">
	<rect x="6.8" y="10.9" width="3.2" height="10.2"/>
	<path d="M8.4,9.5c1,0,1.8-0.8,1.8-1.8c0-1-0.8-1.8-1.8-1.8c-1,0-1.8,0.8-1.8,1.8C6.6,8.7,7.4,9.5,8.4,9.5"/>
	<path d="M21.9,15.5c0-2.7-0.6-4.9-3.8-4.9c-1.5,0-2.6,0.8-3,1.6h0v-1.4h-3v10.2h3.2v-5c0-1.3,0.3-2.6,1.9-2.6
		c1.6,0,1.6,1.5,1.6,2.7v5h3.2V15.5z"/>
</g>
</svg>
