<svg version="1.1" id="pinterest" xmlns="http://www.w3.org/2000/svg" xmlns:xlink="http://www.w3.org/1999/xlink" x="0px" y="0px"
	 viewBox="0 0 28 28" style="enable-background:new 0 0 28 28;" xml:space="preserve">
<path id="circle" style="fill:none;stroke:#000000;stroke-miterlimit:10;" d="M27.5,14c0,7.5-6,13.5-13.5,13.5
	c-7.5,0-13.5-6-13.5-13.5c0-7.5,6-13.5,13.5-13.5C21.5,0.5,27.5,6.5,27.5,14"/>
<path id="logo-shape" d="M10.6,22.8c0,0.1,0.2,0.1,0.2,0.1c0.1-0.1,1.3-1.6,1.8-3.2c0.1-0.4,0.7-2.7,0.7-2.7
	c0.3,0.6,1.3,1.2,2.4,1.2c3.1,0,5.2-2.8,5.2-6.6c0-2.9-2.4-5.6-6.1-5.6c-4.6,0-6.9,3.3-6.9,6.1c0,1.7,0.6,3.1,2,3.7
	c0.2,0.1,0.4,0,0.5-0.2c0-0.2,0.2-0.6,0.2-0.8c0.1-0.2,0-0.3-0.1-0.5c-0.4-0.5-0.6-1.1-0.6-1.9c0-2.4,1.8-4.6,4.8-4.6
	c2.6,0,4,1.6,4,3.7c0,2.8-1.2,5.2-3.1,5.2c-1,0-1.8-0.8-1.5-1.9c0.3-1.2,0.9-2.6,0.9-3.4c0-0.8-0.4-1.5-1.3-1.5
	c-1,0-1.9,1.1-1.9,2.5c0,0.9,0.3,1.5,0.3,1.5s-1.1,4.5-1.2,5.3C10.3,20.7,10.6,22.6,10.6,22.8"/>
</svg>
