<svg version="1.1" id="Layer_1" xmlns="http://www.w3.org/2000/svg" xmlns:xlink="http://www.w3.org/1999/xlink" x="0px" y="0px"
	 viewBox="0 0 150.3 95.7" style="enable-background:new 0 0 150.3 95.7;" xml:space="preserve">
<g id="XMLID_2_">
	<g>
		<path style="fill:#333E48;" d="M149.4,28.9c0.3,1-0.4,1.2-0.8,1.6c0,0.4,0.5,0.1,0.7,0.3c-0.1,2.1,0.3,5.3,0.4,7.2
			c0.1,0.2,0.2-0.1,0.3,0.1c0,0.3,0.1,0.7,0.1,1c-0.3,0.2-0.4,0.3-0.8,0.5c-0.1,0,0,0.2-0.1,0.2c-0.1,0.1-0.3,0-0.4,0
			c-0.1,0-0.2,0.3-0.3,0.4c-0.1,0.1-0.3-0.1-0.3-0.1c-0.1,0.1-0.2,0.4-0.4,0.5c-0.1,0.1-0.3,0.1-0.3,0.1c-0.3,0.2-0.8,0.4-1.2,0.4
			c-0.1,0.3,0.3,0.1,0.3,0.3c0.2,2.6,0.6,5.7,0.8,8c0.1,0.8,0.6,1.9-0.4,2.1c-0.3-2.5-0.3-5.1-0.7-8.1c-0.1-0.5-0.3-1-0.3-1.4
			c0-0.5,0.1-1.1-0.2-1.6c-0.2,0.4-0.1,1.2-0.1,1.7c-0.2,0.1-0.2,0-0.4,0.1c0.4,2.6,0.6,6.6,0.9,9.9c-0.6,0.1-0.7,0.6-1.2,0.8
			c-0.2-0.1,0-0.7-0.2-0.8c-0.8-0.1-1.4,0-2.6,0.1c-0.2-0.2,0-0.9-0.3-1c-0.1,0.3-0.1,0.8-0.3,1c-1.5,0.1-3.2,0.4-5,0.4
			c-0.1,1,0.2,3.1,0.3,4.3c-1.4-0.1-3-0.2-4.9,0.1c-0.3,0-0.8,0.1-1.1,0.2c-0.2,0.1-0.4,0.3-0.6,0.4c-0.8,0.3-1.5,0.3-2.1,0.8
			c-0.2-0.2-0.2-0.6-0.3-1c2.2-2.2,4.7-4.1,6.9-6.4c0.3-0.3,0.5-0.9,1.1-0.6c-0.9,1.2-2,2.3-3,3.4c-1.3,0.8-2.1,2-3.3,2.8
			c0.3,0.3,0.7-0.1,1.1-0.2c0.4-0.1,1-0.1,1.3-0.3c0.2-0.1,0.2-0.3,0.5-0.4c0.4-0.3,1.1-0.6,1.5-1c0.4-0.4,0.8-0.8,1.2-1.3
			c0.4-0.4,0.7-0.9,1.1-1.3c0.3-0.4,0.8-0.7,1.1-1c0.4-0.4,0.7-0.8,1.1-1.1c1.1,0.1,2-0.3,3.3-0.2c0,0.5,0.1,1.1,0.2,1.2
			c0.4-0.2,0.1-0.8,0.2-1.2c0.7-0.2,2-0.1,2.5-0.5c-0.1-1.9-0.2-4.1-0.5-6c-0.1-0.3-0.4-0.3-0.5-0.5c0.4-0.5,1-0.8,1.7-1
			c0-0.2,0.1-0.4,0-0.7c-1.2,0.7-2.4,1.3-3.7,1.9c-0.5-0.3-0.2-1.1-0.5-1.7c-0.2,0.5,0.1,1.1,0,1.6c-0.5,0.4-1.6-0.1-1.9,0.4
			c-1.8,0-2.7-1.1-4-1.7c0-0.8,0.1-1.8-0.2-2.6c0.9,0,1.8-0.3,2.2-0.3c0.3,1,0.2,2.3,0.5,3.2c0.2-0.1,0.2-0.3,0.5-0.3
			c-0.1-1-0.1-2.1,0-3c0.7,0,1.4-0.1,2.5-0.2c0,0.9,0.3,1.8,0.2,2.5c0.5-0.5-0.2-1.6,0-2.5c0.6-0.4,1.5-0.1,2.4-0.3
			c0.1-0.4,0.1-1.3-0.3-1.4c-0.2-0.2,0.2-0.3,0.2-0.4c0.1-0.5-0.2-1.3-0.2-1.9c0.2-0.1,0.3-0.4,0.4-0.5c0.4-0.1,0.5,0.4,0.7,0.2
			c-0.2-0.5-0.7-0.3-1.1-0.1c-0.5-0.5-0.1-1.4,0.3-1.7c-0.2,0-0.3,0.2-0.6,0.1c0-1.1-1.6-0.4-2.3-0.7c0.1-1.2-0.4-2.8-0.2-3.8
			c0.9,0,1.8,0,2.5-0.2c-0.1-0.5,0-0.8-0.1-1.1c0.8-0.2,0.4,1,0.9,1.3c0,1.1-0.1,1.9,0.2,3.1c0.2-0.5,0.1-1,0-1.6
			c-0.1-1.2,0.3-3.7-1.2-4.2c0.1-0.7,0-1.7-0.1-2.6c0-0.6-0.1-1.2-0.3-1.6c-1.1,0.1-2.1,0.3-3,0.2c0.2-0.4,0.9-0.5,1.3-0.8
			c0-0.3-0.1-0.3-0.1-0.6c0.3,0,0.9-0.4,1.1,0.1c0.3-0.2,0.2-0.7,0.9-0.6c0.1-0.4,0.2-0.7,0.5-0.9c0.3-0.1,0.1,0.3,0.2,0.4
			c0.1,0.2,0.4,0.3,0.3,0.8c0.3,0,0.4-0.2,0.6-0.3c0.5,0.2,0.6,0.4,1,0c0.1,0.1,0.1,0.2,0.1,0.3c0.2-0.4,0.5-0.1,0.9,0
			c0.2-0.1,0.5-0.1,0.5-0.4c0.6,0,0.5-0.2,1-0.3c0.2,0.2,0.3,0.5,0.9,0.3c0.5,3.6,0.2,6.3,0.6,9.2C148.9,29,149.3,28.8,149.4,28.9z
			 M149.1,29.8c0-0.3,0.1-0.5-0.1-0.6c-0.1,0.1-0.1,0.3-0.2,0.4c-0.6,0.6-1.8,0.6-1.9,1.6C147.8,30.8,148.3,30.2,149.1,29.8z
			 M149.8,39.1c0-0.2,0-0.4-0.1-0.6c-0.3,0-0.4,0.2-0.6,0.1c-0.5,0.7-1.8,0.6-1.7,1.8C148.4,40,148.9,39.4,149.8,39.1z M149.6,38.2
			c-0.4-1.2-0.2-2.7-0.4-4c-0.1-0.9-0.1-1.8-0.3-2.6c-0.9,0.3-2.2,0.9-2.8,1.6c-0.2,2,0.1,4.3,0.6,6.5c1.1-0.1,1.3-1,2.4-1.1
			C149,38.1,149.5,38.3,149.6,38.2z M148.5,28c-0.1-1.3-0.1-2.7-0.4-4.2c-0.3-0.1-0.5-0.7-0.9-0.4c0.1,0.1,0.3,0.1,0.4,0.3
			c0.4,1.5,0.5,3.3,0.4,4.7c0.4,0-0.1,0.8,0.4,0.8C148.5,28.8,148.5,28.4,148.5,28z M147.9,29.8c-0.2-2-0.1-3.4-0.6-5.7
			c-0.3-0.3-0.9-0.5-1.4-0.2c-0.8,1.8-0.1,4.4,0.2,6.7C146.8,30.5,147.2,29.7,147.9,29.8z M145.6,39.9c-0.1-1.8-0.2-3.7-0.4-5.3
			c0-0.3-0.1-0.9-0.3-1c-0.1,0-0.1,0-0.2,0c-0.2,0.2,0.1,0.3,0.1,0.6c0.1,1.5,0.2,3.2,0.4,4.8C145.3,39.3,145.4,39.7,145.6,39.9z
			 M144.2,39c0.1-0.2,0.2-0.8,0.1-1.2c-0.1-0.4-0.1-0.3-0.1-0.7c0-0.2-0.1-0.5-0.1-0.7c0-0.3,0.2-0.7-0.2-0.9
			C143.9,36.5,143.8,38.2,144.2,39z"/>
		<path style="fill:#333E48;" d="M149,29.1c0.3,0.1,0.1,0.4,0.1,0.6c-0.8,0.4-1.3,1-2.3,1.3c0.1-1,1.3-1,1.9-1.6
			C148.9,29.4,148.9,29.3,149,29.1z"/>
		<path style="fill:#333E48;" d="M149.3,39.9c0.4,0.2,0.3,0.8,0.3,1.1c0.2,2.7,0.5,5.8,0.6,8.5c-0.7,0.2-0.6-0.7-0.6-1
			c-0.1-1-0.1-2.3-0.1-3.3c-0.1-1.8-0.6-3.9-0.4-5.4C149.3,39.8,149.3,39.9,149.3,39.9z"/>
		<path style="fill:#333E48;" d="M148.6,32.1c0.2,2.6,0.4,4,0.4,6.1c-0.3-0.1-0.3-0.6-0.3-0.9c-0.1-0.8-0.2-1.7-0.2-2.5
			c0-0.2,0.1-0.3,0.1-0.5c0-0.8-0.5-1.7-0.3-2.3C148.4,32,148.5,32.1,148.6,32.1z"/>
		<path style="fill:#333E48;" d="M149.1,70.6c0.1,1.2-0.1,2.9-0.5,4.1c-0.3,1-0.6,1.8-1,2.7c-0.2,0.5-0.5,1-0.9,1.3
			c-0.4,0-0.1-0.3,0-0.4c0-0.3-0.2-0.3-0.1-0.6c0.1,0,0.1,0,0.1-0.1c0.9-2.1,1.8-4.2,1.5-7.4c-0.2-2-0.7-3.5-1.5-4.9
			c-0.5-0.9-1.4-1.7-1.3-3c0.1,0,0.2,0,0.2,0C147.3,64.3,148.8,66.8,149.1,70.6z"/>
		<path style="fill:#333E48;" d="M147.3,69.3c0.2,0.5,0.4,1.5,0.2,1.8c-0.5,0.1-0.8,0-1.2-0.1c-0.1-0.6-0.3-1.2,0-1.7
			C146.6,69.4,147,69.4,147.3,69.3z"/>
		<path style="fill:#333E48;" d="M146.2,66.8c0.7,0.1,0.9,1.3,0.8,1.9c-0.1,0.3-0.5,0.3-0.8,0.4C146.2,68.6,145.7,67.3,146.2,66.8z"
			/>
		<path style="fill:#333E48;" d="M147.4,71.7c0,1.1,0,1.8-0.5,2.6c-0.7-0.1-0.5-1.8-0.5-2.4C146.4,71.5,147.2,71.6,147.4,71.7z"/>
		<path style="fill:#333E48;" d="M145.8,65.7c0.4,0,0.4,0.4,0.2,0.6C145.7,66.3,145.7,65.8,145.8,65.7z"/>
		<path style="fill:#333E48;" d="M146.8,74.7c0.1,0.3,0.3,1-0.3,0.9c-0.2-0.2,0-0.7,0-0.9C146.6,74.8,146.7,74.7,146.8,74.7z"/>
		<path style="fill:#333E48;" d="M139.7,28.3c0,1.4,0.7,3.1,0.1,4c-0.7-0.1-1.8,0.2-2.3,0c-0.1-0.9-0.1-2.5-0.4-3.6
			C137.6,28.3,138.9,28.3,139.7,28.3z"/>
		<path style="fill:#333E48;" d="M143.7,81.9c0.1,0,0.1,0.1,0.1,0.2c-0.5,0.6-1.1,1.1-1.9,1.6c-0.2,0.1-0.5,0.2-0.7,0.3
			c-0.5,0.3-1,0.7-1.8,1c-0.2,0.1-0.5,0.1-0.7,0.2c-2.6,1.1-6.4,1.1-9.2,0.3c-1.4-0.4-2.6-0.8-3.6-1.7c0.2-0.3,0.9-0.5,1.5-0.4
			c0.4,0.1,0.8,0.4,1.2,0.6c2.6,1.2,6.9,1.3,10,0c1.3-0.5,2.6-0.9,3.6-1.9C142.7,82.2,143.6,82.3,143.7,81.9z"/>
		<path style="fill:#333E48;" d="M136.4,28.7c0,1.2,0.2,2.8,0.2,3.8c-0.9,0.2-1.4,0.2-2.2,0.1c-0.1-1.3-0.3-2.7-0.2-3.8
			C134.9,28.5,135.5,28.6,136.4,28.7z"/>
		<path style="fill:#333E48;" d="M136.6,43.2c0,0.2-0.1,0.2,0,0.4c-0.4,0.1-1,0.3-1.3,0c-0.2-0.3,0.1-0.7-0.2-1
			C135.8,42.6,136,43.1,136.6,43.2z"/>
		<path style="fill:#333E48;" d="M140.2,82.5c-0.4,0.6-0.9,0.8-2,0.9c-0.6-1-1-2.3-1.5-3.5c-0.2,1.3,0.5,2.5,0.6,3.9
			c-0.9,0.4-1.9,0.7-2.9,0.5c-0.3-0.9,0.2-2,0.2-3.5c-0.5,0.9-0.3,2.5-0.8,3.4c-1.4,0-2.3,0.1-3.1-0.6c0.3-0.6,0.6-1.4,0.7-2.2
			c0.1-0.6,0-1.3,0.2-1.9c0.1-0.6,0.7-1.2,0.2-1.9c-0.4,0.4-0.4,1.3-0.5,1.8c-0.2,0.8-0.5,2-0.7,2.9c-0.1,0.5-0.1,1.2-0.6,1.4
			c0.1-1.5-0.6-3.2-0.4-4.5c0.1-0.5,0.5-0.9,0.6-1.3c0.2-0.5,0.4-0.9,0.5-1.3c-0.4,0.4-0.6,1.1-1.2,1.3c-0.2-0.3-0.1-0.9-0.2-1.3
			c0.5-0.1,0.7-0.6,1.1-0.9c-0.2-0.1-0.5,0.3-0.9,0.3c-0.3-0.4-0.3-1.2-0.4-1.8c0.2-0.2,0.5-0.4,0.8-0.6c-0.2-0.2-0.4,0.2-0.6,0.1
			c-0.4-0.6-0.2-1.9-0.3-2.4c0.5,0,0.6-0.2,1-0.1c0.2,1.3,0.7,2.6,1.7,3c-0.1-0.2-0.4-0.7-0.8-0.8c-0.1-0.7-0.3-1.3-0.3-2.1
			c0.6,0,1.5-0.2,2-0.1c0.3,1,0.8,1.4,1.5,1.7c0.1-0.3-0.3-0.1-0.4-0.3c0,0,0.2-0.5-0.3-0.5c-0.1-0.3-0.2-0.8-0.1-1.1
			c0.9-0.1,1.2,0,2-0.2c0.3,1-0.3,1.4-0.7,1.9c0.6-0.3,1.4-1,1.4-1.9c0.4,0.1,1.3-0.2,1.8-0.1c0.1,2.1-0.8,3.3-2.4,3.9
			c-0.1,0.2-0.4,0.2-0.4,0.4c-0.4,0.1-0.7-0.3-1,0c-0.2,0.3,0.7,0.4,0.8,0.1c0.1,0,0.1,0.1,0,0.1c1.5,0.1,2.7-1.2,3.2-2.4
			c0.7,0.4,0.1,1.6,0.5,2.4c-0.3,0.2-0.6-0.1-0.8-0.3c0.1,0.5,0.3,0.8,0.6,1c0.1,1.2,0.6,3,0.3,3.9c-0.3,0-0.4-0.3-0.5-0.6
			c-0.5-0.8-1-1.7-1.5-2.6c0.3,2.1,2.2,3.4,2.4,5.6C139.5,82.2,139.7,82.3,140.2,82.5z M134.9,78.8c0-0.1,0-0.1,0-0.2
			c-0.1,0-0.1,0-0.2,0c0,0.1,0,0.1,0,0.2C134.8,78.8,134.9,78.8,134.9,78.8z M134.8,79.7c0-0.1-0.1-0.3-0.1-0.2
			C134.7,79.6,134.7,79.8,134.8,79.7z M134.5,80.7c0.2,0,0.2-0.7,0.1-0.7C134.6,80.3,134.4,80.3,134.5,80.7z M133.8,75.3
			c-0.3-0.1,0-0.1,0-0.3c-0.4,0.1-0.9-0.3-1.4-0.3c0.3-0.3-0.3,0-0.3-0.2c0,0,0-0.1-0.1-0.1c0,0.1-0.1,0.1-0.2,0.1
			c0.1,0.5,0.7,0.3,0.8,0.8C133,75,133.3,75.7,133.8,75.3z M132.2,77.3c-0.1-0.4,0.3-0.9,0.1-1.2c-0.1,0.5-0.5,0.8-0.4,1.5
			C132.4,77.7,131.8,77.1,132.2,77.3z"/>
		<path style="fill:#333E48;" d="M136.8,58.2c0,2,0.7,3.9,0.3,5.3c-0.4,0.1-0.7-0.1-1.3,0c0.2-1.9,0.4-3.8,0.8-5.5
			C136.7,58.1,136.7,58.1,136.8,58.2z"/>
		<path style="fill:#333E48;" d="M136.1,58c-0.4,1.8-0.5,3.8-0.8,5.6c-0.4,0.1-1.3,0.3-1.7,0.2c-0.1-1.7-0.3-4-0.2-5.8
			C134.4,57.8,135.5,57.8,136.1,58z"/>
		<path style="fill:#333E48;" d="M134.9,78.7c0,0.1,0,0.1,0,0.2c-0.1,0-0.1,0-0.2,0c0-0.1,0-0.1,0-0.2
			C134.8,78.7,134.9,78.7,134.9,78.7z"/>
		<path style="fill:#333E48;" d="M134.7,79.5c0-0.2,0.1,0,0.1,0.2C134.7,79.8,134.7,79.6,134.7,79.5z"/>
		<path style="fill:#333E48;" d="M132.9,50.5c-0.2,1.2-1.4,1.4-1.8,2.4c-0.7,0.4-1.2,0.9-1.8,1.5c-0.5,0.5-0.9,1.3-1.7,1.5
			c-0.1-1.1,0-1.5-0.2-2.4c-1.3-0.2-3,0.2-4.5,0.2c-0.1,0-0.2,0.1-0.2,0.1c0,0-0.1-0.1-0.1-0.2c-0.2,0-0.5,0.2-0.7,0.2
			c-0.3,0-0.4,0-0.7-0.1c0-0.3,0.3-0.3,0.5-0.5c0.5-0.6,1-1.3,1.5-1.9c0.9-0.1,2-0.1,2.8-0.3c0.2-1.9-0.4-4.6-0.5-6.9
			c-0.9,0.1-2,0-3,0.3c-0.2-0.5-0.1-1.2-0.2-1.7c0.1,0,0.1,0,0.2,0c0.8-0.1,1.2,0.4,1.9,0.4c0.3,0.5,1,0.6,1.5,0.6
			c0.5,0.3,1.1,0.5,1.6,0.8c0.3,1.8,0.3,4.4,0.9,6.4C130.1,50.5,131.6,51,132.9,50.5z"/>
		<path style="fill:#333E48;" d="M134.6,80c0.1,0,0.1,0.7-0.1,0.7C134.4,80.3,134.6,80.3,134.6,80z"/>
		<path style="fill:#333E48;" d="M132.8,58.1c-0.1,0.8,0.2,2,0.3,3.2c0,0.4-0.1,1,0,1.5c0,0.5,0.4,0.8,0,1.1
			c-0.2,0.1-0.8-0.1-0.8-0.6c-0.1,0.6-0.8,0.8-1.3,0.7c-0.2-0.9-0.7-1.6-1.2-2.6c-0.3-0.7-0.9-1.5-0.9-1.8c0.1-0.5,1-0.9,1.7-0.9
			c0.4,0.2,0.3,0.6,0.4,1c0.3,1.1,0.7,2.3,1.1,3.4c0.2-1.5-1-3.2-0.9-4.5C131.7,58.4,132.2,57.9,132.8,58.1z"/>
		<path style="fill:#333E48;" d="M132.2,76.1c0.2,0.3-0.1,0.7-0.1,1.2c-0.3-0.2,0.3,0.4-0.4,0.4C131.7,76.9,132.1,76.6,132.2,76.1z"
			/>
		<path style="fill:#333E48;" d="M130.7,63.8c-0.1,0.1-0.1,0.2-0.1,0.3c-0.6,0.1-1.3,0.2-1.5-0.3c-0.2,0,0,0.3,0,0.4
			c-0.8,0.6-1-0.5-0.8-0.9c0.4-0.1,0.5,0.3,0.8,0.4c-0.8-0.8-1.3-2.7-0.8-3.9c0.6,0.6,0.9,1.4,1.3,2.1
			C129.9,62.6,130.5,63.1,130.7,63.8z"/>
		<path style="fill:#333E48;" d="M125.9,23.7c0.3,2.4,0.1,5,0.6,7.7c-0.4-0.1-0.8-0.1-1.1-0.2c-0.3-1.4-0.6-3.7-0.4-4.9
			c0.1-0.3,0.5-0.2,0.4-0.6c-0.6-0.4-1,0.3-1.1,0.8c-0.2,1.1,0.2,3.2,0.4,4.2c0,0.4-0.3,0.4-0.4,0.7c0.7,0.4,1.8,0.4,2.5,0.9
			c-0.1,0.3-0.4,0.3-0.5,0.5c-0.4-0.2-0.8-0.4-1.3-0.5c-0.3,0.4,0,0.9,0,1.5c0.1,0.9,0,2.1,0.3,2.9c0.1,0.2,0.1,0.6,0.5,0.6
			c0.4-1.2-0.2-2.7-0.1-4.2c0.3-0.2,0.4,0,0.7-0.1c0.6,1.3,0.3,3.5,0.6,5.4c-1.4-0.3-2.7-0.9-4.1-1.3c-0.7-0.2-1.4-0.4-2-0.6
			c-0.7-0.2-1.3-0.6-2-0.7c-0.7-0.2-1.3-0.2-1.9-0.5c-0.2-0.7,0-1.5,0.1-2.1c-0.1-0.4-0.5-1.3-0.1-1.6c0.4,0.1,0.4,0.7,0.4,1
			c0,0.6-0.1,1.3,0.1,2.1c0.2,0.2,0.6,0.2,0.9,0.3c-0.3-3.9-0.6-8-0.9-11.3c0.2-0.3,0.6-0.4,0.9-0.5c-0.4-1.9-0.3-4-0.7-5.5
			c-1.1,0-2.1,0.5-2.6,0.1c0-0.1,0-0.1-0.1-0.2c0-0.2,0.1-0.6,0.2-0.8c1.2-0.1,3.2-0.2,4.4-0.5c0.1,0.4,0.2,0.4,0.4,0.8
			c0.7-0.2,1.1,0.1,1.3,0.6c-0.5,0.4-0.7,0-1.2-0.1c-0.2,1.4,0.3,3.8,0.5,5.3c-0.1,0.1-0.5,0.1-0.7,0.1
			C121.4,23.3,123.8,23.5,125.9,23.7z M122.6,31.5c-0.1,0-0.2,0-0.2,0c0.2,1.3,0,2.9,0.5,4C122.9,34.1,122.6,32.6,122.6,31.5z
			 M121.4,30.1c0.2,0.1,0.7-0.1,0.7-0.4c-0.3-0.2-0.7,0.1-0.8,0.2C121.4,29.9,121.5,30,121.4,30.1z M121.7,24.7
			c-0.1-0.9-1.1-0.7-2-0.8c-1.6,1.1-0.2,4.5-0.2,6.2c0.2,0,0.6,0.2,0.7,0c-0.8-0.4-0.5-1-0.7-2.3c-0.3-1.4-0.3-2.7,0.4-3.2
			C120.6,24.2,121.2,24.5,121.7,24.7z M120.4,35.2c0.1-1.2-0.1-2.2-0.3-3.2c-0.1-0.4,0.1-0.9-0.3-1.1c-0.1,0-0.1,0-0.2,0
			c0,0.1,0,0.2,0,0.2c0,0.9,0.2,1.8,0.3,2.9C120.1,34.3,120,35,120.4,35.2z"/>
		<path style="fill:#333E48;" d="M125.9,38.8c0.5,0.2,1.4,0.2,1.3,1c-0.8,0.2-1.5-0.3-2.2-0.6c-2.1-0.7-4.3-1.5-6.4-2.2
			c-0.6,0-1.1-0.2-1.4-0.5c-0.1-0.3,0-0.5,0.2-0.6c1.4,0.3,3,1,4.5,1.5c0.4,0.1,0.8,0.2,1.3,0.3c0.2,0.1,0.4,0.2,0.5,0.3
			c0.2,0.1,0.5,0,0.7,0.1C124.9,38.3,125.4,38.6,125.9,38.8z"/>
		<path style="fill:#333E48;" d="M127.2,40.9c0.1,0.8,0.3,1.6,0.2,2.4c-0.3,0.1-0.4-0.1-0.7-0.2c-0.1,0-0.1,0.1-0.2,0
			c0,0-0.1-0.2-0.2-0.2c-0.6-0.2-1.1-0.3-1.6-0.5c-0.2-0.1-0.3-0.2-0.5-0.3c-0.2-0.1-0.3,0-0.5,0c-0.3-0.1-0.7-0.3-1-0.5
			c-1.6-0.7-3.5-1.3-5.3-2c0.2-0.6-0.2-1.6,0-2.2c0.1,0,0.1,0,0.2,0c0.5,0,0.9,0.3,1.4,0.5c1.5,0.6,3.3,1.1,4.9,1.7
			C124.9,40,126.1,40.4,127.2,40.9z"/>
		<path style="fill:#333E48;" d="M121.7,17.9c0.1,1.3,0.4,3.7,0.3,5.1c-0.9-0.3-0.9-1.7-1-2.8c-0.1-0.9-0.1-1.7,0-2.2
			C121.3,17.9,121.4,17.7,121.7,17.9z"/>
		<path style="fill:#333E48;" d="M120.7,41.8c0,1,0.5,1.9,0.4,2.7c-0.8,0.1-2.1,0.4-3.1,0.2c0-1.1-0.4-2.8-0.4-4.1
			C118.6,40.9,119.7,41.3,120.7,41.8z"/>
		<path style="fill:#333E48;" d="M117.5,19.3c0.2,0.2,0.3,0.7,0.2,1c-0.2,0.1-0.5,0.1-0.6,0.2C116.6,20.2,116.4,19.1,117.5,19.3z"/>
		<path style="fill:#333E48;" d="M117.8,20.8c0.1,0.3,0,0.9,0,1.2c-0.3,0-0.5,0-0.8-0.1c-0.2-0.4-0.1-0.7,0-1.1
			C117.3,20.8,117.6,20.7,117.8,20.8z"/>
		<path style="fill:#333E48;" d="M117.8,22.2c0,0.2,0,0.4,0.1,0.7c-0.4-0.1-0.2,0.4-0.6,0.3c-0.1-0.2-0.2-0.5-0.2-0.8
			C117.2,22.2,117.5,22.3,117.8,22.2z"/>
		<path style="fill:#333E48;" d="M116.7,17.8c0.7-0.4,0.9,0,1,0.9c-0.3,0.1-0.3,0.3-0.7,0.2C116.7,18.6,116.6,18.2,116.7,17.8z"/>
		<path style="fill:#333E48;" d="M119.7,52.2c0.1,0,0.2,0.1,0.2,0.1c0,0.4-0.3,0.7-0.5,1c-0.6,0.7-1.4,1.5-1.9,2.4
			c-0.7-0.1-0.1-1.2-0.5-1.5c-0.4-0.1-0.7,0.3-0.9,0.1c0.2-0.4,0.8-0.6,1.2-0.8C118,53.1,118.9,52.7,119.7,52.2z"/>
		<path style="fill:#333E48;" d="M116.7,22.4c0.1,0.2,0,0.5,0.1,0.9c-0.5,0.2-0.8,0-1.1-0.2c0-0.4-0.2-0.6,0-0.8
			C116,22.4,116.3,22.4,116.7,22.4z"/>
		<path style="fill:#333E48;" d="M116.3,17.9c-0.1,0.5,0.3,1,0,1.2c-0.6-0.1-1-0.3-0.9-1.2C115.8,17.9,115.8,17.9,116.3,17.9z"/>
		<path style="fill:#333E48;" d="M116.9,26.7c0.2,0.6,0.2,1.2,0.1,1.8c-0.7-0.1-0.4-1.2-0.3-1.8C116.8,26.7,116.9,26.7,116.9,26.7z"
			/>
		<path style="fill:#333E48;" d="M117.3,30.7c-0.1,0-0.3,0-0.4,0c-0.1-0.5-0.2-1.1-0.1-1.6c0.1,0,0.2,0,0.2,0
			C117.3,29.4,117.2,30,117.3,30.7z"/>
		<path style="fill:#333E48;" d="M116.4,23.8c0.6-0.2,0.4,1,0.4,1.1C116.3,25.3,116.1,24.2,116.4,23.8z"/>
		<path style="fill:#333E48;" d="M116.8,25.5c0.1,0.2,0.3,0.8,0,0.9c-0.4,0.1-0.3-0.7-0.2-0.9C116.6,25.5,116.7,25.5,116.8,25.5z"/>
		<path style="fill:#333E48;" d="M119.6,56.6c0,1.8,0.4,4.2,0.3,5.7c-2.7,2-4.8,4-6.9,6.7c-0.6,0.1-0.5,0.8-1.2,0.8
			c0-0.8,0.7-1.5,1-2.2c0.1-0.1,0.2-0.4,0.3-0.6c0.2-0.5,0.5-1,0.9-1.6c0.9-1.4,1.6-2.8,2.4-4.2c0.4,0,0.7-0.2,1-0.1
			c0.1-0.4,0.3-0.9,0-1.3c0.6-1.2,1.2-2.4,1.9-3.5C119.5,56.5,119.5,56.5,119.6,56.6z"/>
		<path style="fill:#333E48;" d="M116.4,19.5c0,0.4,0,0.8-0.2,1.1c-0.3,0-0.4-0.3-0.7-0.3c0-0.2,0-0.4-0.1-0.7
			C115.7,19.4,116.2,19.4,116.4,19.5z"/>
		<path style="fill:#333E48;" d="M115.6,21c0.6-0.4,1.3,0.5,0.7,0.9c-0.4,0-0.4,0-0.7,0C115.7,21.6,115.4,21.3,115.6,21z"/>
		<path style="fill:#333E48;" d="M120.8,72.7c0.1,0.5,0.2,1.1,0,1.5c-0.4,0-0.4-0.5-0.5-0.7c-0.3-1.1-0.2-2.3-0.1-3.4
			c0-0.1,0.1-0.1,0.1-0.3c0.1,0,0.1,0.1,0.3,0.1C120.7,70.6,120.7,71.7,120.8,72.7z"/>
		<path style="fill:#333E48;" d="M121.2,78c0.4,1.2,0.3,3.3,0.4,4.8c-1.6,0.7-3.7-0.1-5.7,0.3c-1.1,0.2-2,0.8-2.9,1
			c-0.1-0.8-0.2-2-0.2-2.8c1.3-0.5,3.6,0.2,3.7-1.4c-0.2-0.3-0.5-0.5-0.8-0.7c-0.6-1.8-2.4-2.3-3.5-3.5c0.1-0.5,0-0.7,0-1.4
			c0.8-1,1.9-1.9,3-3c0.7-0.7,1.5-1.5,2.3-2.2c0.7-0.7,1.4-1.5,2.1-2.2c0.1-0.1,0.1-0.1,0.2-0.2c0.1,0,0.1,0,0.2,0
			c0,0.7-0.4,1.5-0.5,2.3c0,0.1,0.1,0.4,0.1,0.6c-0.1,0.7-0.1,2,0,3c0,0.2,0.2,0.4,0.2,0.6c0.1,0.4,0,0.9,0.2,1.5
			C120.3,75.8,120.8,76.9,121.2,78z"/>
		<path style="fill:#333E48;" d="M120,64.2c0.2,0.6-0.4,0.9-0.7,1.1c-0.3,0.3-0.6,0.7-1,0.8c-0.1,0.3-0.4,0.5-0.7,0.7
			c-0.3,0.2-0.4,0.5-0.7,0.7c-1.3,1.3-2.8,2.7-4.2,4.1c-0.1,0.2-0.2,0.5-0.6,0.5c-0.1-0.7,0.5-1.1,0.9-1.5c0.4-0.4,0.7-0.9,1.2-1.2
			c1.5-2.1,3.7-3.5,5.5-5.3C119.8,64.2,119.9,64.2,120,64.2z"/>
		<path style="fill:#333E48;" d="M114.9,18c0.1,0.3,0.1,0.7,0.1,1c-0.2,0.2-0.8,0.2-1,0C113.9,18.2,114.3,17.9,114.9,18z"/>
		<path style="fill:#333E48;" d="M114.1,19.5c0.6-0.1,1,0.1,1,0.8c-0.4,0.1-0.5,0.1-0.9,0.2C114.1,20.3,113.9,19.8,114.1,19.5z"/>
		<path style="fill:#333E48;" d="M115.3,22.5c0,0.4,0.1,0.7-0.1,0.9c-0.4-0.1-0.6,0.1-1-0.1C113.8,22.2,114.7,22.4,115.3,22.5z"/>
		<path style="fill:#333E48;" d="M115,20.9c0.1,0.2,0.2,0.8,0.1,1.1c-0.4,0-0.5,0.1-0.7,0C114,21.4,114.2,20.6,115,20.9z"/>
		<path style="fill:#333E48;" d="M113.7,19.5c0.1,0.5,0,0.8-0.2,1.1c-0.4-0.1-0.6-0.1-0.8,0.2c-0.6-0.1-0.5-0.9-0.4-1.3
			C113.1,19.5,113.1,19.3,113.7,19.5z"/>
		<path style="fill:#333E48;" d="M113.6,18.1c-0.1,0.3,0,0.6,0,1c-0.6,0.2-0.9,0.1-1.4,0.3c-0.3-0.2-0.3-1-0.2-1.3
			C112.8,18,113.1,17.9,113.6,18.1z"/>
		<path style="fill:#333E48;" d="M113.7,21.1c0,0.3,0,0.6,0.2,0.8c-0.5,0.2-1.1,0.5-1.5,0.2c0-0.4,0-0.9,0.1-1.2
			C112.9,21,113.4,20.9,113.7,21.1z"/>
		<path style="fill:#333E48;" d="M113.8,22.7c0,0.2,0,0.5,0.1,0.7c-0.3,0.3-1,0.5-1.3,0.3c-0.2-0.2-0.2-1-0.1-1.2
			C113,22.6,113.5,22.4,113.8,22.7z"/>
		<path style="fill:#333E48;" d="M115.5,51.9c0.3,0,0.7-0.4,0.8-0.1c-0.3,0.4-0.8,0.4-1.2,0.6c-0.3,0.1-0.6,0.4-0.9,0.6
			c-0.3,0.1-0.7,0.2-1.1,0.3c-0.3,0.1-0.6,0.3-1,0.4c-0.7,0.3-1.3,0.8-1.9,0.9c-0.6,0.1-1.6,0.1-2.2,0c-1.2-0.1-2.4,0.4-3.8,0.3
			c-0.2,0-0.4,0-0.3-0.2c-0.9,0.6-2.7,0.5-3.9,0.5c0-1.5,2.9-0.4,3.6-1.2c-1-0.4-2.5,0.3-3.5-0.1c-0.3,0,0.1,0.7-0.3,0.7
			c-0.8-0.1-0.2-1.3-0.6-1.8c-0.1-0.2-0.2,0.3-0.6,0.2c-0.2-0.2-0.3-0.4-0.5-0.5c-0.7,0-1.2,0.6-1.6,0.6c-0.2-0.3-0.2-1-0.1-1.3
			c0.7-0.2,1.4-0.3,2-0.4c0.2,0.1,0.4,0.2,0.5,0.5c0.2-0.3,0.4-0.6,0.7-0.8c1-0.1,2.5-0.6,3.7-0.6c-0.1-0.1,0-0.5-0.1-0.6
			c-0.1-0.2-0.6-0.3-0.5-0.6c-1.2-0.3-2.5-0.6-3.8-0.5c0-1.2-0.3-3.1-0.1-4.4c1.7,0.1,2.9-0.9,4.2-1.6c0.3,0.8,0.2,1.2,0.3,2
			c-0.1,0.2-0.1,0.4-0.3,0.4c0.6,0.8,0.3,2,0.4,3.1c0.5,0,0.4-0.5,0.3-0.9c1.2,0.1,2.6-0.2,3.8-0.3c-0.2,0.4,0,1.1-0.1,1.5
			c-1.3-0.1-3,0.1-4-0.1c-0.3,0.3,0.1,0.7-0.1,1.2c0.5,0,0.4-0.4,0.5-0.7c1.5-0.1,2.2-0.3,3.6-0.2c0.1,0.4,0.1,0.7,0.1,1.2
			c-1.6,0.1-2.9,0.2-4.3,0.3c0,0.5,0.2,0.9,0.2,1.5c-1.1,0.5-2.8,0.1-3.9,0.6c0.9,0.8,2.7-0.6,3.9,0c0.2,1-0.1,1.4,0.1,2.3
			c0.3,0.1,0.5-0.4,0.8-0.6c1.1-0.1,2.3-0.2,3.4-0.3c0.1-0.1,0.1-0.4,0.1-0.6c-0.3,0-0.1,0.3-0.3,0.4c-1.2,0-2.6,0.2-3.7,0.2
			c0-0.5-0.1-0.9-0.2-1.3c1.1-0.5,3-0.2,4.1-0.5c0.1-0.2,0.1-0.4,0.1-0.7c0.7-0.4,1.4-0.8,2.3-1c0.2,0.5,0.2,1.4,0.2,1.8
			C112.1,52.6,113.7,51.7,115.5,51.9z M102.8,45.3c-0.1,0-0.1-0.1-0.3-0.1c-0.6,0.5-2.3,0.2-2.7,0.8
			C100.7,46.1,102.5,46.2,102.8,45.3z M101.8,47.6c0.3,0,1-0.1,1.1-0.3c-0.2-0.2-0.7-0.3-0.8,0c-0.7,0.2-2-0.1-2.3,0.4
			C100.4,47.8,101.1,47.7,101.8,47.6z"/>
		<path style="fill:#333E48;" d="M111.4,22.2c0.2-0.1,0.2,0.1,0.4,0c-0.3,0.4,0.1,1.1,0,1.6c-0.5-0.2-0.9,0.2-1.3,0
			C110.7,23.2,111.2,22.8,111.4,22.2z"/>
		<path style="fill:#333E48;" d="M116,79.5c-0.1,0.3,0.3,0.4,0.1,0.6c-0.5,0.7-2.3,0.4-3.2,0.6c-0.2-0.2-0.3-0.6-0.2-0.9
			c0.1,0,0.1,0,0.2,0C113.7,80,115.2,79.4,116,79.5z"/>
		<path style="fill:#333E48;" d="M114.2,61.4c-0.1,1-0.8,1.6-1.2,2.4c-0.4,0.8-0.7,1.6-1.3,2.3c-0.2,0-0.3-0.4-0.3-0.5
			c-0.2-1.3,0.1-3-0.3-3.9C112.2,61.6,113.1,61.5,114.2,61.4z"/>
		<path style="fill:#333E48;" d="M110,22.2c-0.4,1-1.6,1.8-2.3,2.7c-0.8,1-1.1,2.2-1.8,3.4c-0.4-0.1-0.6-0.4-0.9-0.7
			c-0.3-0.2-0.6-0.4-0.7-0.8c0.2-0.4,0.5-0.6,0.6-1.1c-0.5-0.2-1.2,0.8-1.7,0.3c-0.1-0.3,0.3-0.1,0.5-0.2c0.3-0.1,1-0.6,1.5-0.5
			c1-0.9,1.7-2,2.8-2.9c-0.2-0.4-0.3-1.2,0.1-1.5c0.7,0.4,0,1.2,0.5,1.5C109,22.4,109.5,22.3,110,22.2z"/>
		<path style="fill:#333E48;" d="M107.7,12.7c-0.1,0-0.2,0-0.3,0c-0.1-0.4,0-0.5-0.1-0.8c0.1,0,0.2,0,0.2,0
			C107.4,12.5,107.6,12.1,107.7,12.7z"/>
		<path style="fill:#333E48;" d="M107.9,15.7c0.1,0.7,0.2,1.5,0.1,1.9c-0.8,0.2-0.6-1.7-0.5-2.1C107.7,15.5,107.8,15.6,107.9,15.7z"
			/>
		<path style="fill:#333E48;" d="M112.6,77.9c0.4,0.2,1,0.3,1.1,0.9c-0.1,0.3-0.6,0.6-1,0.4C112.6,78.9,112.5,78.2,112.6,77.9z"/>
		<path style="fill:#333E48;" d="M107.3,12.9c0.6,0,0.7,1.5,0.4,1.9c-0.1,0-0.1,0-0.2,0C107.1,14.7,107.2,13.3,107.3,12.9z"/>
		<path style="fill:#333E48;" d="M107.5,18.4c0.1-0.1,0.3-0.1,0.6-0.1c-0.1,0.8,0.3,1.4,0,2.1C107.3,20.5,107.7,19.1,107.5,18.4z"/>
		<path style="fill:#333E48;" d="M108.6,26.3C108.7,26.3,108.7,26.4,108.6,26.3c0.1,1.6,0.3,3.5,0.5,5.2c0,0.4,0.3,0.9,0,1.2
			c-0.2,0.1-0.1-0.1-0.3-0.2c-0.2-0.2-0.7-0.6-1-0.9c-0.4-0.5-0.8-1.4-0.8-2.2C107,28.1,107.8,27.1,108.6,26.3
			C108.6,26.2,108.6,26.3,108.6,26.3z"/>
		<path style="fill:#333E48;" d="M109.3,34.7c-0.1,0.7,0.4,1.5,0,1.9c-0.8-0.1-1.2-0.7-1.9-0.9c0-0.7,0-1.6-0.2-2.3
			c0.1,0,0.2,0,0.2,0C107.9,34.1,108.7,34.2,109.3,34.7z"/>
		<path style="fill:#333E48;" d="M109.6,38.7c0.2,1.7,0.5,3.8,0.5,5.3c-0.1,1.4,0.3,2.9,0.3,4.3c0,0.5-0.1,0.9,0,1.4
			c-0.6,0.4-1.5,0.9-2.1,1c-0.3-0.6,0-1.2-0.2-1.9c0-0.2-0.2-0.5-0.2-0.7c0-0.4,0.1-0.7,0.1-1.2c0-1.2-0.3-2.6-0.2-3.5
			c0-0.1,0-0.3,0.2-0.4c-0.1-0.1-0.3-0.2-0.1-0.4c-0.4-0.4-0.7-0.9-1-1.3c-0.5-0.1-1-0.2-1.6-0.1c0.2-0.8,0.7-1.4,1.1-2.1
			c0.4-0.8,0.6-1.7,0.9-2.6c0.2,0,0.4,0.1,0.7,0.2c0.3,1.3,0.2,4.2,0.4,5.8c0.1,0.7,0.7,1.1,1.3,1.3c0-1.8-0.3-3.2-0.5-5.2
			c0-0.4-0.2-0.9,0.2-1.1C109.8,37.8,109.5,38.2,109.6,38.7z"/>
		<path style="fill:#333E48;" d="M106.9,11.8c-0.1,0.3,0,0.5,0.1,0.8c-0.5,0.1-0.3-0.6-0.3-0.9C106.8,11.7,106.8,11.8,106.9,11.8z"
			/>
		<path style="fill:#333E48;" d="M105.8,11.7c0.2,0.1,0.4,0.9,0.2,1C105.6,12.5,105.7,11.9,105.8,11.7z"/>
		<path style="fill:#333E48;" d="M105,11.5c0.3,0.1,0.3,0.8,0.2,1C104.8,12.5,104.9,11.7,105,11.5z"/>
		<path style="fill:#333E48;" d="M104.8,9.1c0.1,0.7,0.5,1.8-0.3,1.9c-0.6-0.3-0.2-1.2-0.2-1.9c-0.3-2.8-0.8-6.4-0.6-9.2
			c0.1,0,0.2,0.1,0.2,0.1C104.1,2.7,104.5,6.4,104.8,9.1z"/>
		<path style="fill:#333E48;" d="M104.7,41.4c1.4-0.4,2.7,0.1,2.7,1.3c-0.6,0.1-1.4,0.1-2.1,0.1c-0.6,0-1.4,0.3-1.8-0.1
			C103.5,42,104.4,42,104.7,41.4z"/>
		<path style="fill:#333E48;" d="M107.6,45.3c0,0.4,0.1,0.8,0.1,1.2c-1.3,0.3-2.8,0.1-3.9,0.3c-0.1-0.3-0.2-1-0.1-1.3
			C104.7,45.4,106.2,45.5,107.6,45.3z"/>
		<path style="fill:#333E48;" d="M107.3,43.1c0,0.6,0.2,1.5,0.2,1.9c-1.4,0.1-2.7,0.2-3.9,0.1c0-0.5-0.2-1.2-0.1-1.6
			C104.6,43,106.2,43.1,107.3,43.1z"/>
		<path style="fill:#333E48;" d="M107.7,50.3c0.2,0.4,0,0.8-0.1,1.2c-1.3,0.1-2.3,0.2-3.5,0.4c-0.1-0.3-0.1-0.5-0.2-1
			C105,50.5,106.3,50.5,107.7,50.3z"/>
		<path style="fill:#333E48;" d="M104.6,14.2c0.1,0.4-0.5,0.6,0.1,0.7c-1.6,0.9-3.6,1.5-5.5,2.1c0-0.8-0.4-1.6-0.2-2.4
			c0.5-0.4,2-1,2.9-1.2c0.9-0.3,1.8-0.5,2.7-0.8C104.4,13.1,104.3,13.8,104.6,14.2z"/>
		<path style="fill:#333E48;" d="M104.6,15.8c0.1,0.7,0,1.6,0.3,2c-0.9,0.3-1.8,0.5-2.8,0.9c-0.7,0.3-1.8,0.9-2.8,0.9
			c0.2-0.5-0.2-1.4,0-2.1C101,17.2,102.7,16,104.6,15.8z"/>
		<path style="fill:#333E48;" d="M104.4,11.5c-0.1,0.2-0.1,0.5-0.1,0.9c-0.2,0.1-0.5,0.2-0.8,0.2c0-0.4-0.1-0.7-0.1-1.1
			C103.8,11.4,104.1,11.1,104.4,11.5z"/>
		<path style="fill:#333E48;" d="M104.8,18.6c0.1,0.6,0.1,1.9,0.3,2.6c-1.6,0.1-3.2,0.9-4.7,1.3c-0.2,0,0,0.3,0,0.5
			c-0.3,0-0.4,0.2-0.7,0.1c-0.3-0.7-0.1-1.7-0.3-2.4c1.6-0.9,3.6-1.3,5.2-2.2C104.5,18.6,104.6,18.6,104.8,18.6z"/>
		<path style="fill:#333E48;" d="M105.1,22c0,0.5,0,1.6,0.1,2.3c-0.6,0.4-1.4,0.5-2.2,0.8c-0.6,0.2-1,0.5-1.6,0.5
			c-0.6,0-1.1-0.5-1.7-0.5c0-0.5-0.2-1.1,0-1.4C101.5,23,103.2,22.4,105.1,22z"/>
		<path style="fill:#333E48;" d="M110.4,84.8c0,0.6-0.7,0.4-1,0.4c-0.2,0-0.5,0.1-0.6,0.1c-0.1,0-0.2,0.2-0.2,0.2
			c-0.1,0-0.2-0.1-0.3-0.1c-0.8,0.2-1.8,0.5-2.9,0.8c-0.7,0.1-1.3,0.4-2,0.5c-1,0.2-2.1,0.2-2.8,0.5c-0.2,0.1-0.4,0.2-0.6,0.3
			c-0.2,0.1-0.4,0.1-0.6,0.2c-0.8,0.4-1.4,0.9-2.4,1.4c-0.2,0.1-0.4,0.1-0.6,0.2c-0.8,0.4-2.5,0.8-3.8,1c-1.9,0.3-4.5,0-6.2-0.4
			c-0.9-0.2-1.4-0.4-2.2-0.6c-0.3-0.1-0.7-0.2-1-0.3c-0.2-0.1-0.3-0.3-0.4-0.4c-0.4-0.3-1.3-0.3-1.4-0.9c0.2-0.1,0.5,0.2,0.8-0.1
			c0.7,0.5,1.6,0.7,2.3,1.1c1.1,0.1,2,0.4,2.9,0.7c0.7,0,2.1-0.1,2.9,0.1c1.1-0.3,2.5-0.2,4.1-0.5c1.5-0.3,2.8-1,4-1.8
			c0.6-0.4,1.1-0.7,1.6-1.2c0.5-0.5,0.7-1.2,1.4-1.4c0.6-1.1,1.6-2,2.2-3.3c0.3-0.7,0.5-1.6,0.6-2.5c0-0.1,0.1-0.1,0.1-0.3
			c0.1,0,0.1,0,0.2,0.1c0.4,0.1,0.1,0.6,0.1,0.8c0,1.6,0.5,3.9,0.6,5.9C106.5,85.2,108.8,84.7,110.4,84.8z"/>
		<path style="fill:#333E48;" d="M103.1,11.9c-0.1,0.5,0.3,0.5,0.2,0.9c-0.2,0.2-0.7,0.3-0.9,0.1c0.1-0.4,0-0.4,0-0.9
			C102.7,11.9,102.9,11.9,103.1,11.9z"/>
		<path style="fill:#333E48;" d="M102,12.2c0,0.5,0.2,0.5,0.2,0.9c-0.3,0.3-0.4,0.3-0.8,0.2C101.1,12.8,101.2,12,102,12.2z"/>
		<path style="fill:#333E48;" d="M101,2.8c0.3,2,0.2,4.2,0.5,6.2c0.1,0.5,0.1,1.1,0.1,1.6c0,0.4,0.3,1.1-0.2,1.3
			c-0.6,0-0.3-0.7-0.3-1c0-0.4,0-0.9,0-1.3c-0.1-2.3-0.5-4.8-0.6-7.3c0-0.1,0.1-0.1,0.1-0.3c0.1,0,0.1,0,0.2,0
			C101.1,2.1,101,2.6,101,2.8z"/>
		<path style="fill:#333E48;" d="M100.9,12.6c-0.1,0.5,0.2,0.7,0.1,1.1c-0.1,0.1-0.6,0.3-0.8,0.2c-0.2-0.2-0.1-0.7-0.2-1.1
			C100.2,12.6,100.6,12.6,100.9,12.6z"/>
		<path style="fill:#333E48;" d="M99.7,13c0,0.3,0.1,0.7,0.1,1c-0.3,0.1-0.4,0.3-0.7,0.1C98.7,13.6,98.9,12.6,99.7,13z"/>
		<path style="fill:#333E48;" d="M103.4,64.5c-0.4,0.1-0.4-0.4-0.5-0.7c-0.3-0.4-0.6-0.9-0.6-1.4c0.3-0.2,0.4,0.1,0.8-0.1
			C103.3,63.1,103.2,63.8,103.4,64.5z"/>
		<path style="fill:#333E48;" d="M103.7,68.9c-0.1,0.7,0.2,1.1,0.1,1.6c-0.4,0-0.4-0.5-0.6-0.8c-1-1.9-2.1-4.2-3.7-5.5
			c-0.4,0.2-0.6,0.7-0.8,1.1c0.5,0.6,1,1.2,1.5,1.8c-0.9,1.1-2.3,1.7-3.5,2.6c-0.3,0.2-0.8,0.8-1.3,0.6c0-0.8,0.7-1.4,1.1-2
			c0.4-0.6,0.8-1.2,1.2-1.8c0.8-1.2,1.4-2.5,2.1-3.8c0-0.1,0-0.1,0.1-0.1c0.3-0.2,0.4,0,0.9,0C101.7,64.7,102.7,66.8,103.7,68.9z"/>
		<path style="fill:#333E48;" d="M103.8,71c-0.1,0.4-0.6,0.2-0.8,0.2c-0.7,0.1-1.5,0.3-2.4,0.5c-0.9,0.2-3.6,0.5-4.9,0.7
			c0-0.3,0.2-0.4,0.2-0.8c1.9-0.7,3.8-1.3,5.7-2c0.5,0.2,0.5,1,0.8,1.3C102.8,71.1,103.4,70.6,103.8,71z"/>
		<path style="fill:#333E48;" d="M103.6,77.9c0.2,0,0.3-0.4,0.7-0.1c-0.5,0.3-1.2,0.4-1.6,0.7c-0.1,0.6-0.2,1.1-0.6,1.5
			c-0.6-0.2-1.4-0.8-1.9-0.2c0.2,0.3,0.7,0.2,0.9,0.3c0.3,0.1,0.5,0.3,0.8,0.4c-0.1,0.9-0.4,1.5-0.9,2.1c-0.4,0-0.7-0.2-0.8-0.5
			c-0.9-0.2-1.2-1.1-2.1-1.3c0,0.6,0.6,0.6,0.9,0.9c0.3,0.7,1.1,0.7,1.5,1.4c-0.1,0.9-0.8,1.5-1.3,2.1c-1-0.9-1.9-1.8-3-2.5
			c-0.2-0.4-0.4-0.7-0.8-0.8c0.3,0.9,1,1.2,1.7,1.8c0.5,0.4,0.8,1,1.4,1.2c0,0.2,0.1,0.3,0.2,0.4c-0.1,0.6-0.7,0.7-1.1,1.1
			c-0.7-0.2-0.8-1.1-1.4-1.4c-0.6-1.1-1.6-1.6-2.1-2.7c0.2-0.7,1.7-1,2.8-1.5c0.4-0.2,0.8-0.6,1.3-0.8c1.2-0.5,2.4-0.8,3.3-1.4
			C102,78.5,102.9,78.1,103.6,77.9z"/>
		<path style="fill:#333E48;" d="M95.7,74.6c2.9-0.2,5.7-1.1,8.3-1.1c-0.2,0.6-1.6,0.3-1.2,1.1c-1,0.5-2.3,0.4-3.6,0.5
			c-1.1,0.1-2.3,0.5-3.4,0.2C95.8,75,95.6,74.9,95.7,74.6z"/>
		<path style="fill:#333E48;" d="M104.1,76.8c0,0.6-0.7,0.6-1.1,0.8c-0.5,0.2-1,0.4-1.4,0.6c-0.5,0.2-1.1,0.5-1.7,0.7
			c-1.7,0.7-3.3,1.7-4.9,2c0.2-0.6,0.1-1.8,0.7-1.9c0-0.3-0.2-0.3-0.1-0.6c1,0,2,0.7,2.9,0.6c-0.2-0.5-0.8-0.4-1.4-0.5
			c-0.3-0.3-0.9-0.3-1.4-0.5c0.1-0.3-0.1-0.9,0.1-1.2c0.5,0,0.9,0.1,1.3,0.2c1.3,0,2.5-0.1,3.6,0c0.6,0,1.1,0.3,1.7,0.3
			C103,77.4,103.5,77,104.1,76.8z M96.2,79.3c0.1,0.3,0.2,0.6,0.6,0.5C96.7,79.5,96.6,79.3,96.2,79.3z"/>
		<path style="fill:#333E48;" d="M98.9,32.2c1,0.5,1.2,3.2,0.5,4.1c-0.4-0.1-0.4-0.6-0.4-1c-0.1-0.6,0-1.2-0.1-1.8
			C98.9,33.1,98.6,32.6,98.9,32.2z"/>
		<path style="fill:#333E48;" d="M102.8,75.2c0,0.6,0.1,1.3-0.1,1.7c-1.9,0-4.9,0-7-0.4c0.2-0.3,0.1-0.7,0.4-0.9
			C98.5,75.5,101.1,75.1,102.8,75.2z"/>
		<path style="fill:#333E48;" d="M98.4,32c0.1,0.4,0.2,0.7,0.2,1.2c-0.5,0.2-0.7,0.6-1.1,0.6c-0.2-0.4-0.1-0.8-0.2-1.4
			C97.7,32.3,97.8,32,98.4,32z"/>
		<path style="fill:#333E48;" d="M98.6,33.9c0,0.5,0.1,0.9,0.1,1.4c-0.3,0.2-0.7,0.7-1.3,0.5c0-0.4-0.1-0.8-0.1-1.2
			C97.8,34.4,97.9,33.9,98.6,33.9z"/>
		<path style="fill:#333E48;" d="M98.7,35.9c0.1,0.3,0,0.5,0.2,1c-0.4,0.2-0.7,0.8-1.3,0.7c-0.1,0.7-1.3,0.8-2.1,0.7
			c-0.4-1.9-0.4-4.5-0.7-6.8c0.8,0.1,1.4-0.2,2.1-0.1c0.1,1.8,0.4,3.5,0.5,5.5c0.3,0,0.2-0.2,0.2-0.4C98.2,36.3,98.2,35.9,98.7,35.9
			z"/>
		<path style="fill:#333E48;" d="M100.2,67.4c0.7,0.3,0.9,1.2,1.3,1.9c-1.8,0.8-4.1,1.6-5.9,2.1c-0.3-0.5,0.4-0.8,0.7-1
			c0.4-0.3,0.7-0.6,1.1-0.8C98.4,68.9,99.6,68.3,100.2,67.4z"/>
		<path style="fill:#333E48;" d="M96.3,21.5c0,0.9,0.2,2,0.2,3.2c-0.6,0.2-1.6,0.2-2.3,0.1c0.1-0.9-0.1-2.2-0.3-3.3
			C94.7,21.2,95.5,21.4,96.3,21.5z"/>
		<path style="fill:#333E48;" d="M98,44.6c0.2,1.2,0.3,3,0.3,4.3c-0.6,0.2-1.5,0.2-2,0c-0.2-1.1-0.4-2.7-0.4-4.2
			C96.5,44.8,97.4,44.7,98,44.6z"/>
		<path style="fill:#333E48;" d="M96.7,53.3c0.2,0.9,0.9,1.7,0.9,2.5c-0.6,0-0.8-0.1-1.4,0c-0.1,1.2,0.1,2.7,0.2,4.3
			c0.1,0.9,0.2,1.7,0.1,2.4c-0.7-0.2-1.1-0.8-1.7-1c-0.1-1.8-0.3-3.4-0.5-5.2c-2.2-0.2-4.7,0.1-6.7,0.2c-0.3,0.1-0.1-0.3-0.2-0.5
			c-3.7,0.4-8.3,1.3-12.3,1.3c0.1-0.5,0.1-1.1,0.3-1.5c-0.1-1.6-0.2-3.3-0.3-4.8c-0.1-1.3,0-2.6-0.2-3.9c-0.1-0.5-0.2-0.9-0.2-1.4
			c0-0.2,0.1-0.3,0.1-0.5c0-0.4-0.2-0.8-0.2-1.1c0-1.1,0.3-2.3,0.4-3.5c0-0.3-0.1-0.9,0.3-1c0.2,0.3,0.1,0.7,0.2,1.2
			c0.2,1.3,1,2.6,0,3.1c0.2,0.2,0.5-0.2,0.7,0.1c0.3,1.9,0.9,3.3,1.2,5.1c-0.5,0.2-0.8,0.2-1.2,0.1c-0.2-0.3-0.4-0.7-0.7-1
			c0-1.3-0.5-3.1,0-4.2c-0.1,0-0.1,0-0.2,0c-0.9,1.2,0,3.2,0,5.2c0.7,0.4,1.3,0.9,2.3,0.7c0.4,0.9,0.1,1.8-0.6,2.1
			c-0.6,0-0.9-0.3-1.4-0.5c-0.1,0.4,0.3,0.5,0.5,0.6c0.2,0.1,0.6,0.2,0.8,0.2c0.5-0.1,0.6-0.6,1.1-0.5c0.5,0.9,0.2,2.3,0.8,3
			c2.5-0.1,5.8-0.4,8-0.7c-0.3-1.2-0.6-2.7-0.8-3.7c0.4,0,0.7,0.5,1,0.9c0.3,0.4,0.6,0.8,0.9,1.2c0.3,0,0.5,0.2,0.8,0.3
			c-0.2,0.3-0.1,0.7-0.1,1.2c1.2,0.3,3.1,0,4.4-0.1C94.3,53.5,95.4,53.5,96.7,53.3z M77.8,54.7c0-0.4-0.3,0.1-0.6,0.1
			c-0.3-0.4-1.1-0.2-1.4-0.5c0,0.2,0.2,0.2,0,0.3c0.5,0.2,0.9,0.3,1.5,0.4C77.5,55,77.4,54.7,77.8,54.7z"/>
		<path style="fill:#333E48;" d="M94.1,18.2c0.3,0.8,0.3,2,0.3,3c-0.7,0.1-0.4-0.8-0.4-1.2c-0.1-0.6-0.2-1.2-0.2-1.8
			C94,18.2,94,18.2,94.1,18.2z"/>
		<path style="fill:#333E48;" d="M96.3,63.8c0.3-0.4,0.6-1.2,1.3-1.1c-0.6,1.5-1.6,2.6-2.2,4.1c-0.5,0-0.2-0.5-0.2-0.7
			c-0.1-0.9-0.3-2.2-0.3-2.9C95.6,63.2,95.8,63.7,96.3,63.8z"/>
		<path style="fill:#333E48;" d="M93.7,20.4c0.1,0.3-0.2,0.2-0.2,0.4c0.1,1.3,0.2,3,0.2,4.1c-0.6,0.2-1.7,0.2-2.7,0.3
			c-0.2-0.8,0-2.2-0.3-3c-0.3-0.1-1,0.3-1.3,0.2c-0.2,1,0.3,2.1,0,3c-0.3,0-0.7,0.1-0.8,0c-0.2-0.6-0.2-1.3-0.4-1.9
			c-0.5,0.5,0,1.3-0.1,2.2c-0.4,0.1-0.7,0.1-1.4,0.2c0.4,7.7,1.3,15.3,1.6,23.2c-0.5,0.2-0.6,0-1.1-0.1c-0.4-3-0.1-5.9-0.5-8.4
			c-0.2,0.2-0.2,0.8-0.1,1.3c0,0.1,0,0.2,0,0.3c0.1,0.3,0.2,0.2,0,0.5c0,2,0.3,4.5,0.2,6.3c-0.3,0.1-0.6,0.1-0.9,0
			c0.4-1,0.3-3.6,0-5.4c-0.2-1.3-0.6-1.9-1.9-2.1c-0.6-1.7-1-3.9-1.5-5.4c1.6,0.3,3.4,0.6,4,2.1c0.2-0.4,0.1-0.9,0.1-1.3
			c0-1.2,0-2.3-0.1-3.5c-0.2-3.7-0.8-7.2-0.9-10.7c0.5-0.1,0.7-0.1,1.2-0.2c0.2-1-0.1-2-0.2-3c0.5,0,0.8-0.2,1.2-0.3
			c0.2,0.1,0.2,0.4,0.3,0.6c0.3-0.1,0.5-0.2,0.9-0.2c0.5,0.5,0.3,1.3,0.4,2c0.3,0.2,0.8-0.1,1.1-0.2c0.1-0.3-0.2-0.7,0.1-1
			c0.5,0,0.9-0.1,1.4-0.2c0.4,0,0.6,0.5,1.1,0.2c0.1-1.2,0-1.8-0.2-3.2c0.1,0,0.1,0,0.2,0c0.5,0.2,0.3,1,0.3,1.4
			C93.5,19.2,93.7,19.7,93.7,20.4z M86.7,39.9c0.1-0.1,0.2-0.5-0.1-0.4C86.6,39.6,86.5,39.9,86.7,39.9z M85.9,39.3
			c-0.1-0.1-0.5-0.1-0.7,0.1c0,0.3,0.1,0.3,0.2,0.5C85.8,39.8,85.9,39.6,85.9,39.3z M84.2,39.9c0-0.2,0.1-0.3,0.1-0.6
			c-0.2,0-0.2-0.2-0.4-0.1C83.8,39.4,83.7,40,84.2,39.9z"/>
		<path style="fill:#333E48;" d="M95.3,84.9c0.5,0.6,1,1.2,1.4,1.9c-0.3,0.6-1.4,0.9-2.2,0.9c-0.4-1.4-1-2.6-1.3-4.2
			c0.3,0,0.4-0.4,0.6-0.2C94.4,83.6,94.8,84.3,95.3,84.9z"/>
		<path style="fill:#333E48;" d="M92.8,84.2c0.4,1.1,1,2.6,0.9,3.7c-0.5,0.2-1.3,0.1-1.7,0.3c-0.3-1.1-0.2-2.3-0.2-3.3
			C92.2,84.8,92.3,84.3,92.8,84.2z"/>
		<path style="fill:#333E48;" d="M91.4,85.4c0,1.2,0.4,2.3,0.1,3c-0.9,0-1.5,0.1-2.3-0.1c0.1-0.6-0.1-1.4,0-2
			C90.3,86.3,90.7,85.4,91.4,85.4z"/>
		<path style="fill:#333E48;" d="M85.7,27.9c0,0.5,0.2,0.7,0.2,1.2c-1.9-0.2-3.5-0.7-5.4-1c0.1-0.3-0.1-0.5,0-0.7
			C82.5,27.4,83.8,28.5,85.7,27.9z"/>
		<path style="fill:#333E48;" d="M85.8,30.3c0.3,0.5,0.4,1.2,0.3,1.9c-0.6-0.1-1.1,0-1.8-0.2c-0.7-0.2-1.4-0.6-2.6-0.3
			c-0.2-0.2-0.4-0.4-0.4-0.8c1-0.1,2.2-0.6,2.8-0.7C84.7,30.2,85.1,30.4,85.8,30.3z"/>
		<path style="fill:#333E48;" d="M86,33c0.3,0.4,0.2,1.1,0.2,1.6c-0.8,0.1-2.6,0.4-3.9,0.1c-0.2-0.2-0.3-0.8-0.2-1.1
			C83.6,33.6,84.4,33,86,33z"/>
		<path style="fill:#333E48;" d="M86,29.6c0,0.4-0.6,0.2-0.8,0.2c-0.2,0-0.4,0.2-0.6,0.2c-1,0.1-2.3-0.3-3.5,0c0-0.4-0.1-0.5-0.1-1
			c1.1,0.2,2.6,0,3.5,0.4C84.8,29.3,85.7,29.3,86,29.6z"/>
		<path style="fill:#333E48;" d="M86.2,57c0,0.6,0.1,0.9,0.1,1.3c-2.4,0.8-6,1-8.6,1.2c-0.2-0.3-0.2-0.9-0.1-1.2
			c1.1-0.3,2-0.1,2.9-0.2c0.2,0,0.4-0.2,0.6-0.2c0.2,0,0.4,0.1,0.7,0c0.6-0.1,1.3-0.4,1.9-0.5c0.5-0.1,1.1-0.1,1.5-0.2
			C85.5,57.1,85.8,56.8,86.2,57z"/>
		<path style="fill:#333E48;" d="M86.2,67.2c0.5,1,1.3,1.8,1.1,3c-0.7-0.1-0.9-0.7-1.3-1.1c-1.1-1.3-2.3-2.5-3.5-3.6
			c0.2-0.9,1.2-1.1,1.9-1.6C85.1,64.9,85.6,66,86.2,67.2z"/>
		<path style="fill:#333E48;" d="M86.5,61.6c0.1,0.5-0.5,0.3-0.8,0.4c-1.3,0.6-2.5,1.3-3.5,2.1c-1.1,0.8-2,1.7-3,2.6
			c-0.2,0.4-0.3,0.9-0.8,1.1c-0.3-0.4-0.1-0.9-0.1-1.5c-0.1-1.5-0.4-3.2-0.2-4.4c1.2-0.2,2.7-0.4,4.2-0.4c0.8,0,1.6,0.2,2.3,0.1
			c0.2,0,0.5-0.1,0.7-0.1C85.7,61.3,86.3,61.2,86.5,61.6z"/>
		<path style="fill:#333E48;" d="M86.3,63.7c0.6,0.8,0.6,1.8,0.7,3.2c-0.6,0.1-0.8-0.6-1-1.1c-0.3-0.7-0.7-1.4-0.9-2.2
			c0.6,0,0.7-0.6,1.3-0.4C86.4,63.5,86.2,63.5,86.3,63.7z"/>
		<path style="fill:#333E48;" d="M86.3,58.9c0,0.6,0.4,1.7-0.1,2.1c-2.4,0.2-3.5-1-6.2-0.6c-0.6,0.1-1.2,0.3-2,0.3
			c0-0.5,0.4-0.5,0.6-0.6c0.9-0.3,2.1-0.2,3.1-0.3C83.3,59.6,84.8,59,86.3,58.9z"/>
		<path style="fill:#333E48;" d="M87.6,74.1c-0.2,0.6,0.2,1.6-0.1,2.1C86.9,76.1,86.7,73.9,87.6,74.1z"/>
		<path style="fill:#333E48;" d="M87.3,71.3c-0.2,0.5,0.3,1.1,0.1,1.6c-0.8-0.3-1.5-1.1-2.2-1.7c-0.2-0.2-0.5-0.3-0.7-0.5
			c-0.2-0.2-0.2-0.4-0.4-0.6c-1-1-2.4-1.9-3.4-3.1c0.1-0.7,0.6-1.1,1.3-1.3C83.7,67.6,85.6,69.3,87.3,71.3z"/>
		<path style="fill:#333E48;" d="M88.5,86.6c0.2,0.5-0.1,0.8,0,1.5c-0.9,0.1-1.9-0.3-2.7-0.3c-0.4,0-1,0.5-1.2-0.1
			C85.9,87.3,87.4,87.1,88.5,86.6z"/>
		<path style="fill:#333E48;" d="M86.9,76.4c0.4,0.2,0.7,0.4,0.7,0.9c0,0.2-0.9,1.2-1.1,1.4c-0.2,0.2-0.4,0.4-0.7,0.6
			c-0.5,0.5-1.7,1.3-2.6,0.9c0.1-0.5,0.6-0.7,0.9-1.1C84.9,78.3,85.8,77.3,86.9,76.4z"/>
		<path style="fill:#333E48;" d="M86.7,74.1c0,0.5-0.1,1.5,0.2,2.1c-2.7,0.3-4.7,0.7-7.4,0.9c-0.1-0.2-0.3-0.3-0.4-0.4
			c0-0.7-0.1-0.9,0-1.5C81.5,74.7,84.1,74.7,86.7,74.1z"/>
		<path style="fill:#333E48;" d="M87,73.7c-0.2-0.1-0.6,0.1-0.6-0.3c-0.7-0.1-1.2-0.6-1.8-1c-0.6-0.4-1.4-0.6-1.8-1.2
			c-1.3-0.6-2.5-1.5-3.7-2.2c0.2-0.7,0.5-1.4,1.2-1.7c0.9,0.7,1.8,1.3,2.6,2c0.4,0.3,0.7,0.8,1.1,1.2c0.3,0.3,0.7,0.4,1,0.7
			c0.2,0.2,0.3,0.5,0.5,0.7C85.7,72.5,86.5,73,87,73.7z"/>
		<path style="fill:#333E48;" d="M83.8,73c0.8,0.4,2,0.2,2.4,1c-2.6,0.1-4.3,0.5-6.9,0.7c-0.5-0.6-0.4-1.8-0.4-2.7
			C80.4,72.2,82,72.8,83.8,73c-0.2-0.3-0.8-0.1-0.9-0.5c-0.8-0.1-1.7-0.4-2.6-0.6c-0.3-0.1-0.7-0.2-0.9-0.4c-0.3,0-0.4,0.2-0.6,0.1
			c0-0.8-0.3-1.4-0.1-1.7c2.2,0.5,3.6,2,5.6,2.8C84.3,73.1,84,72.9,83.8,73z"/>
		<path style="fill:#333E48;" d="M85.6,77c0,0.7-1.4,0.9-1.6,1.7c-0.5,0.1-1.3,1.1-1.8,1.6c-0.4,0-0.9,0-1-0.3
			c0.4-0.7,1.5-0.9,2-1.6C84.1,78.3,84.5,77.3,85.6,77z"/>
		<path style="fill:#333E48;" d="M79.4,78c1.4-0.3,3.6-1.1,5.2-1c-0.1,0.4-0.4,0.6-0.9,0.6c-0.9,0.5-1.7,1.2-2.9,1.6
			c-0.3-0.1-0.1,0.3-0.3,0.3C79.9,79.2,79.5,78.9,79.4,78z"/>
		<path style="fill:#333E48;" d="M79.3,87.5c-1,0.1-2.2-0.2-3.2-0.3c-1.7-0.2-3.2-0.4-5.1-0.5c-0.9-1-1.7-2.3-2.6-3.4
			c0-0.1,0-0.2,0-0.2c1.5,0.2,2.9,0.4,4.4,0.6C74.3,85.7,76.6,86.9,79.3,87.5z"/>
		<path style="fill:#333E48;" d="M74.2,47.1c0,3.2,0.8,7.2,0,10.3c-1.6,0.2-2.6,0.3-4.8,0.5c0,0.8,0.2,1.6,0.2,2.5
			c0,0.8,0.1,1.7,0,2.4c0.3,1,0.1,2.1,0.2,3.4c0.2,2.8,0.6,5.7,0.7,8.6c0.1,3,0.7,5.9,1.8,8.2c-0.7,0.2-1.4-0.2-2.1-0.2
			c-0.7-0.1-1.4-0.1-2.2-0.2c-1.2-1.7-2.3-3.6-3.7-5.2c-0.4-0.5-0.9-1.1-1.2-1.7c0.4,0,0.6-0.3,0.9-0.5c0.3-0.2,0.7-0.3,0.9-0.5
			c1.5-1.2,2.9-3.7,3.1-6.1c0.1-1.4-0.2-2.6-0.5-3.7c-0.1-0.4-0.1-0.8-0.3-1.1c-0.5-1.5-1.6-2.4-2.7-3.4c-0.9-0.5-2-1-3.1-1.3
			c0.2-0.9,0.3-1.8,0.5-2.7c0.4-0.2,0.7,0,1.1,0c0.8-0.1,1.4-0.6,2.1-0.7c0.5-0.1,1,0.1,1.5,0c1.8-0.1,3.7-0.3,5.6-0.6
			c0.3-0.6,0.4-1.3,0.5-1.9c0.4-1.9,0.8-4.2,1.3-6.1C74.1,47,74.1,47.1,74.2,47.1z"/>
		<path style="fill:#333E48;" d="M71.6,27.2c0,0.4-0.1,0.8-0.1,1.2c-0.5,0.2-1.1,0.4-1.9,0.4c-0.1,0.4,0,0.9-0.2,1.3
			c-0.8,0.5-1.8,0.3-2.7,0.7c-0.2-0.3-0.1-0.9-0.2-1.3c-0.3-0.1-0.6-0.2-0.8-0.5c-0.2,0.3-0.1,0.8-0.2,1.1c0.3-0.1,0.1-0.6,0.5-0.6
			c0.4,0.7,0.2,1.7,0.6,2.5c-0.5,0.2-0.8,1.2-1.4,0.9c-0.2,0.1,0.1,0.6-0.2,0.6c-0.4-0.1-0.2-0.4-0.3-0.6c-0.6-1.7-1.5-3.4-2.1-5.2
			c-2.1,0-4.3,0.1-7.1,0.4c-0.2-0.4-0.2-1.2,0-1.5c3,0,6.4,0.3,9.7,0.3c0.3,0,0.3,0.3,0.6,0.3c-0.1-0.5,0.2-0.6,0.1-1.1
			c0.6,0.1,0.9,0.7,1.6,0.7c0.8-0.5,1.7-0.1,2.2,0.3C70.6,26.7,71.1,26.9,71.6,27.2z M70.7,28.3c0-0.2,0.4-0.7,0.1-0.7
			c-0.4-0.1-0.6,0.2-1,0.2c-0.2,0-0.3-0.1-0.5-0.2c-0.8-0.4-1.1,0.1-2,0.3c-0.3-0.1-0.6-0.3-1-0.2c-0.1,0.3-0.2,0.7-0.1,1.2
			c0.6,0.4,1,0.4,1.6,0.2c0.5-0.2,0.6-0.7,1.1-0.8c0.6-0.1,1,0.4,1.7,0.2C70.5,28.3,70.6,28.2,70.7,28.3z"/>
		<path style="fill:#333E48;" d="M71.2,28.9c0.2,1.1-0.5,2-0.5,3.2c-1,0.2-1.9,0.9-3,0.8c-0.5-0.2-0.5-0.9-0.6-1.6
			c1.1-0.3,2-0.4,2.9-0.8c0.1-0.3,0-0.8,0-1.2C70.5,29.3,70.7,28.7,71.2,28.9z"/>
		<path style="fill:#333E48;" d="M70.1,32.4c0.1,0,0.1,0.1,0.3,0.1c-0.1,1.3-0.5,2.3-0.8,3.4c-0.2,0.6-0.7,1-1.2,1.3
			c-0.7-0.1-0.4-0.9-0.5-1.5c-0.1-0.7-0.4-1.5-0.4-2.3C68.1,33,69.4,33,70.1,32.4z"/>
		<path style="fill:#333E48;" d="M69.2,37.3c0.2,0.3,0,0.6-0.1,0.8c-0.1,0.9-0.2,2-0.3,3c0,0.4-0.2,0.7-0.2,1
			c-0.1,0.4,0.2,0.8-0.2,1.1c-0.4,0-0.2-0.5-0.3-0.7c-0.2-0.7-0.5-1.8-0.8-2.6c0.1-1.2,1-1.8,1.6-2.6C69,37.3,69.1,37.3,69.2,37.3z"
			/>
		<path style="fill:#333E48;" d="M67.5,36.9c0.1,0.3,0.3,0.6,0.2,0.9c0,0.4-0.4,0.9-0.6,1.1c-0.5-0.7-0.9-1.7-1.2-2.6
			c-0.3-0.7-0.4-1.5-0.8-2.2c0.2-0.8,0.8-1.5,1.8-1.4C67.3,33.9,67.3,35.6,67.5,36.9z"/>
		<path style="fill:#333E48;" d="M64.1,52.6c0.4,1,1,1.9,1.1,3c-0.1,0.1-0.8-0.1-0.6,0.2c-0.8,0.1-1.7,0.5-2.4,0
			c0.1-1.2,0.3-2.6,0.3-3.9c0,0,0-0.1,0-0.1c0,0,0,0.1,0,0.1c-0.1,0.1-0.4,0.1-0.4,0.2c-0.1,0.1-0.1,0.4-0.3,0.6
			c-0.1,0.2-0.4,0.3-0.5,0.5c-0.1,0.2-0.1,0.5-0.2,0.7c-0.3,0.1-0.3,0.5-0.6,0.6c-0.2,0.6-0.5,1.6-1.1,1.6c-0.2-2.3,0.1-6,0.3-8.4
			c0.2,0,0.3,0,0.5,0c0.1-0.1,0.1-0.3,0.2-0.4c0.5-0.1,0.7-1,1.2-0.9c-0.2,1.1-1.2,1.6-1.1,3c0.4,0.5,1,0.8,1.7,1
			c0.3-0.4-0.1-1.3,0-1.6c0.3,0,0.6,0.6,0.7,0.9c0.1,0.3,0.1,0.7,0.2,1c0.1,0.4,0.4,0.7,0.6,1.1C63.9,51.7,63.9,52.2,64.1,52.6z"/>
		<path style="fill:#333E48;" d="M62.4,51.6c0,0.1,0,0.1,0,0.1C62.4,51.7,62.4,51.7,62.4,51.6z"/>
		<path style="fill:#333E48;" d="M60.5,43c0.5,0.4,0.7,1.6,0.8,2.2C61,45.3,61,45,60.7,45c0.2,0,0.2,0.4,0.4,0.4
			c-0.2,0.6-0.4,1-0.8,1.4c-0.2-0.1-0.4-0.1-0.5-0.2c0.3-0.6-0.3-1.8,0.4-2c-0.3-0.2-0.3-0.6-0.3-1.1C60.2,43.4,60.4,43.2,60.5,43z"
			/>
		<path style="fill:#333E48;" d="M61.7,53.4c0.4,0.4,0,1-0.1,1.5c-0.2,1.3-0.2,2.8-0.6,3.9c-0.8-0.2-1.7-0.1-2.4-0.4
			c0.2-1.2,1.3-1.8,1.6-2.9C60.9,55.1,60.9,53.9,61.7,53.4z"/>
		<path style="fill:#333E48;" d="M60.7,42.8c-1,0.2-0.7-1.3-0.8-2.2C60.5,40.9,60.5,42,60.7,42.8z"/>
		<path style="fill:#333E48;" d="M59,56.4c-0.1,1.1-1,1.5-1.6,2.2c-1.4-0.1-3.5,0.1-5.2,0.3c-2.8,0.3-5.4,0.6-7.8,0.9
			c-0.1,1,0.1,2.1,0.2,3.3c0.2,1.3,0.1,2.7,0.3,3.9c0,0.2,0.1,0.4,0.1,0.6c0,0.3-0.1,0.5-0.1,0.8c0,0.3,0.4,0.6,0,0.7
			c-0.7-0.2-0.7-1.2-1.2-1.6c-0.1-0.2,0.1-0.4,0.1-0.6c0-0.2-0.2-0.1-0.3-0.3c0-0.1,0.1-0.4,0-0.4c-0.1-0.3-0.4-0.7-0.7-0.9
			c-0.1-1.7-0.3-3.8-0.6-5.4c-1.1-0.1-3,0.3-3.9,0.1c0.1-0.5,0.4-1,0.7-1.4c0.2-0.4,0.5-0.8,0.9-1.1c0.2-0.4,0.3-0.9,0.5-1.3
			c0.2-0.4,0.5-0.8,0.9-1c0.3,0.5,0.3,1.2,0.3,2.1c0.8,0.2,1.7,0.1,2.6,0c1.7-0.2,3.4-0.3,5.2-0.5c-0.3-4.4-0.8-9.2-1.1-14.5
			c0.1-0.2,0.3-0.2,0.4-0.4c0.6,0.8,1.6,1.2,2.5,1.7c0.3-0.2,0.8-0.6,1.2-0.4c0.3,0,0.1,0.4,0,0.5c-0.2,1.5-0.2,3.3-0.4,5
			c-0.1,1.4-0.3,2.7-0.4,4.1c-0.1,0.8-0.2,1.6,0.1,2.1c-0.2,0.6-0.4,1.2-0.3,1.8C53.9,56.8,56.6,56.4,59,56.4z"/>
		<path style="fill:#333E48;" d="M59.1,67.1c0.8,1.6,0,3.4-1.3,4.3c-1.3,0.5-2.9,0.7-4.2,0.9c-0.5-1.1-0.2-2.6-0.4-4
			c-0.1-0.9-0.3-1.8-0.2-2.5c0.6-0.3,1.2-0.3,2.1-0.3C56.7,65.5,58.6,66,59.1,67.1z"/>
		<path style="fill:#333E48;" d="M54.2,24.8c0.3,0.9,1.1,2.3,0.6,3.3c-0.4,0.2-0.5,0.2-0.9,0.2c-0.2,0.2-0.1,0.6-0.2,0.8
			c-0.5,0.6-0.8,1.3-1.2,1.9c-0.4,0.6-1,1.1-1.1,1.9c-0.7-0.5-1-1.5-1.3-2.5c1.3-1.9,2.7-3.7,3.9-5.7C54.1,24.8,54.2,24.8,54.2,24.8
			z"/>
		<path style="fill:#333E48;" d="M58.4,83.2c0.3,1.1,1.1,1.6,1.5,2.6c-1.1,0.1-1.8,0.1-2.6,0c-0.2,0.5,0.3,0.9,0.4,1.4
			c0.6,1.9,0.3,4.1-0.7,5.3c-0.2,0.2-0.4,0.3-0.5,0.5c-0.2,0.1,0.3,0.1,0.3,0.2c-0.9,1.7-3.2,2.7-5.5,2.5c-0.9-0.1-1.6-0.5-2.4-0.7
			c-1-0.6-1.8-1.2-2.7-2.2c-0.8-0.8-1.7-1.9-2.5-2.8c-0.4-0.4-0.6-0.8-0.9-1.3c-0.8,0.1-2.1,0.4-3.1,0.8c-0.4,0.9-1,1.8-1.8,2.5
			c-0.2,0.1-0.4,0.2-0.5,0.5c-1.2,0.3-2.9,1.6-3.9,0.2c0-0.3,0.2-0.4,0.3-0.6c-0.4-0.5-1.4-0.3-2.3-0.5c0.3-0.5,1-0.4,1.6-0.5
			c1.3-0.2,3.6-0.5,4.7-0.5c0.1,0.5-0.5,0.8-0.8,1.1c-0.6,0.4-1.2,0.6-2.1,0.9c-0.2,0.4,0.6,0.4,0.8,0.2c1.2-0.6,2.8-0.9,2.9-2.4
			c0-0.4-0.4-0.1-0.5-0.3c0-0.9-0.1-1.9-0.1-2.8c0.2-0.1,0.4-0.1,0.6-0.2c0-0.4-0.5-0.2-0.6-0.4c0-1.2-0.2-2.7-0.2-4
			c0.5,0.1,0.7,0.7,1.2,1c0.8-0.6-0.2-1.2-0.5-1.5c0.6-0.4,0.9,0.3,1.6,0.1c0.3-0.4-0.5-0.6-0.2-0.9c0.9-0.2,1.5-1.1,2.4-0.8
			c-0.2-1,0.5-1.3,1-1.7c-0.1-0.2-0.2-0.4-0.3-0.6c1.2,0.1,1.7-1.6,2.5-2.3c0.5,0.1,0.2,0.6,0.2,1c0,0.5,0.2,1.1,0,1.4
			c-0.4,0-0.3-0.8-0.8-0.8c-0.3,0-0.5,0.5-0.8,0.8c-0.5,0.6,0,0.6,0.4,1.2c0.3,0.4,0.5,0.8,0.8,0.9c0,1.1-1.2,1.7-0.9,2.7
			c0,0.1,0.2,0,0.3,0.1c0.8-0.2,0.8-1,1.1-1.6c0.1,0,0.1,0.1,0.2,0.1c0.4,0.1,0.1,0.5,0.1,0.7c0,0.5,0.1,1.1,0.1,1.6
			c0.1,0.6,0.3,1.2,0,1.7c-0.5,0.1-0.5-0.4-0.7-0.8c0-0.1-0.2-0.1-0.3-0.1c-0.4-0.6-0.8-1.4-1.5-1.8c-0.2-0.7-0.7-1.1-1-1.6
			c-0.1,0.5,0.3,0.9,0.6,1.3c0.3,0.4,0.6,0.7,0.8,1.1c0.5,0.8,1,1.6,1.7,2.2c0,0.3,0.1,0.3,0.1,0.5c0.1,0.2,0.3,0.4,0.5,0.5
			c0,0.5,0.2,0.8,0.2,1.3c-0.5,0.1-0.6-0.2-0.8-0.4c0.5,1.9,2.4,3.5,4.1,4.6c1.1,0.3,2,0.8,3.7,0.5c1.1-0.2,2.1-0.8,2.8-1.3
			c0.4-0.9,1.3-1.7,1.1-3.4c-0.1-0.8-0.4-1.8-1.2-2c0.8,2.5-1.2,4.7-3.8,4.6c-0.4,0-0.8-0.2-1.3-0.2c-0.4-0.1-0.9-0.1-1.3-0.4
			c0-0.2,0-0.5-0.1-0.7c0.9-0.2,1.9-0.4,3-0.5c0.6-0.1,1.4,0,1.8-0.4c0.1-0.8-0.2-1.9-0.1-2.7c0.4,0,0.6,0.4,1.2,0.2
			c-0.1-0.5-0.8-0.4-1.1-0.7c-0.2-0.8-0.4-1.6-0.4-2.5c0-1.3-0.3-3.4-0.3-5c0.5-0.4,1-0.1,1.3,0.1c0.7,1.1,1.3,2.4,2,3.5
			c0.2,0.3,0.7,0.5,0.7,1c-0.4,0.7-1.1,0.1-1.9,0.4C56.8,83.3,57.6,83.2,58.4,83.2z M56,84.5c-0.1-0.3,0-0.7-0.5-0.6
			C55.6,84.2,55.8,84.4,56,84.5z M55.4,83.1C55.3,83.5,55.7,83.1,55.4,83.1L55.4,83.1z M54.9,94c-1.7,0.3-3.6,0.3-5.2-0.3
			c-1.7-1.2-3.2-2.7-4.4-4.6c-0.2-0.3-0.5-0.7-0.7-0.9c-0.1-0.2,0-0.4-0.1-0.5c-0.3-0.5-0.8-1-1.1-1.4c-0.1-0.2-0.2-0.5-0.3-0.6
			c-0.3-0.4-0.8-0.7-1.1-1.1c-0.4-0.5-1.1-1-1.6-1.2c-0.5,1.5,1.2,1.7,1.4,2.9c-0.5,0.2-1.1,0.2-1.4,0.5c0.7,0,1.2-0.1,1.6-0.4
			c0.9,0.9,1.6,2.3,2.4,3.3c0.3,0.4,0.5,0.8,0.8,1.2c0.3,0.4,0.8,0.7,1.2,1.1c0.4,0.4,0.7,0.9,1.1,1.1c1.2,0.9,3.1,1.5,4.8,1.7
			c0.7,0.1,1.2-0.2,1.8-0.4C54.4,94.4,54.8,94.3,54.9,94z M45,87.3c0.2,0.2,0.4,0.6,0.7,0.6c-0.7-1.9-2.3-3.5-3.6-5
			c-0.4,0-0.5-0.4-0.9-0.4c-0.1,0-0.1,0-0.2,0c0.4,0.8,1.1,1.3,1.7,1.8C43.4,85.3,44.3,86.4,45,87.3z M42.2,81.3
			c0.3-0.2,1-0.3,0.9-1c-0.1,0-0.2,0-0.3,0c-1.1,1-2.5,1.7-3.2,3c0.2,0.6-0.3,0.9-0.5,1.4c-0.2,1,0,2.3-0.1,3.3
			c-0.1,0.7-0.5,1.5-0.2,2.2c0.6-0.7,0.8-1.6,0.8-2.8c0-0.7-0.1-1.3-0.1-1.9c0-1.3,0.8-3.1,1.6-3.8c0,0,0.2,0,0.2,0
			C41.7,81.6,41.9,81.4,42.2,81.3z"/>
		<path style="fill:#333E48;" d="M52.3,21.6c0.7,0.1,1.1,0.6,1.6,0.9c-1,1.5-1.9,2.9-2.9,4.4c-0.4,0.6-0.9,1.4-1.3,2
			c-0.2,0.3-0.3,0.7-0.7,0.8c-0.1-0.1-0.1-0.3,0-0.4c-1.6-0.9-3.5-1.5-5.1-2.4c-0.2,0.1-0.5-0.2-0.6,0c-0.2-0.2-0.6-0.3-0.7-0.6
			c3.4-1.2,7.4-2.4,10.7-3.6c-0.1-0.2-0.2-0.5-0.5-0.6c-2.6,0.8-5.2,1.6-7.9,2.4c-1.2,0.4-2.5,1-3.8,1.2c-0.2-0.2,0.1-0.4,0-0.7
			C44.7,23.8,48.7,22.9,52.3,21.6z"/>
		<path style="fill:#333E48;" d="M53.4,31.5c0.1,0,0.1,0.1,0.3,0.1c-0.5,1.1,0.3,3.3-1,3.8c-0.4,0-0.4-0.4-0.5-0.7
			c-0.1-0.2-0.3-0.6-0.3-0.8C51.9,33.2,53.2,32.1,53.4,31.5z"/>
		<path style="fill:#333E48;" d="M53.5,35.8c-0.3,0.7-0.2,1.7-0.4,2.5c-0.5-0.2-1.1-0.3-1.5-0.8c-1,0.6-1.4,1.7-2.3,2.4
			c0,0.3-0.2,0.3-0.1,0.6c-0.3,0-0.4,0.3-0.7,0.3c-0.5-1.5,0.2-2.2,0.9-3.4c0.4-0.7,0.7-1.4,1.1-1.9c0.2-0.2,0.5-0.3,0.5-0.7
			c0.1,0,0.2,0,0.2,0c0.3,0.7,0.7,1.3,0.9,2C52.7,36.6,52.7,35.9,53.5,35.8z"/>
		<path style="fill:#333E48;" d="M49.4,32c0.7,0.3,0.7,1.3,1.2,1.9c-0.5,1.4-1.8,2.6-2.2,3.8C47.7,37.5,48,36.6,48,36
			c0-0.4-0.2-1-0.2-1.3c0-0.3,0.4-0.7,0.6-1C48.7,33.3,49,32.5,49.4,32z"/>
		<path style="fill:#333E48;" d="M49.7,93.7c1.6,0.6,3.5,0.6,5.2,0.3c-0.2,0.3-0.6,0.4-0.9,0.6c-0.6,0.2-1.1,0.5-1.8,0.4
			c-1.7-0.2-3.6-0.9-4.8-1.7c-0.4-0.3-0.7-0.7-1.1-1.1c-0.4-0.4-0.9-0.7-1.2-1.1c-0.3-0.3-0.5-0.8-0.8-1.2c-0.8-1-1.6-2.4-2.4-3.3
			c-0.4,0.2-0.9,0.4-1.6,0.4c0.3-0.3,0.9-0.4,1.4-0.5c-0.2-1.3-1.9-1.4-1.4-2.9c0.5,0.2,1.2,0.7,1.6,1.2c0.3,0.4,0.8,0.7,1.1,1.1
			c0.1,0.1,0.2,0.4,0.3,0.6c0.3,0.4,0.8,0.9,1.1,1.4c0.1,0.1,0,0.3,0.1,0.5c0.1,0.2,0.5,0.6,0.7,0.9C46.5,91,48,92.5,49.7,93.7z"/>
		<path style="fill:#333E48;" d="M45.3,28.6c0.2,0.1,0.6-0.1,0.5,0.3c-0.6,0.1-1,0-1.9,0.2c-0.2-1-1.1-1-1.6-1.8
			c-0.1-0.2,0.1-0.2,0.1-0.3c0.1,0,0.2,0,0.2,0c0,0.1,0.2,0.1,0.2,0.4c0.6,0.1,0.9,0.5,1.5,0.7c0.1,0.1,0.4,0.1,0.5,0.1
			C45,28.2,45.1,28.5,45.3,28.6z"/>
		<path style="fill:#333E48;" d="M49.6,89.8c0.1,0.6,0,0.9,0,1.5c-1,0.2-1.6-0.6-2-1.3C48.1,89.7,49.1,89.7,49.6,89.8z"/>
		<path style="fill:#333E48;" d="M43.4,21.7c-0.1,0.1-0.2,0.3-0.2,0.7c-0.5,0.5-1.4,1.2-2.2,0.8C41.1,22.1,42.3,21.6,43.4,21.7z"/>
		<path style="fill:#333E48;" d="M43.1,28.9c-0.5,0.3-0.7,0-1.3,0.3c-0.1-0.4,0-1-0.2-1.3c-0.2,0.6-0.2,1.8-1.4,1.4
			c0.1-0.7,0.8-0.9,0.9-1.6c0.4,0.1,0.4,0,0.7-0.1C42.4,27.9,42.8,28.4,43.1,28.9z"/>
		<path style="fill:#333E48;" d="M41.3,18.6c0.8,0.2,1.1,2.2,0.4,2.7C40.5,21.2,40.7,19.2,41.3,18.6z"/>
		<path style="fill:#333E48;" d="M39.4,20c0.9,0.2,1.4,1.6,1,2.6C39,22.6,38.8,20.9,39.4,20z"/>
		<path style="fill:#333E48;" d="M43.8,73.6c0.5,0.3,1.2,0.5,1.5,0.9c-0.6,1.2-1.8,2.3-2.8,3.4c-0.3,0.3-0.6,0.8-1,1.1
			c-0.1,0.1-0.5,0.2-0.6,0.3c-0.2,0.1-0.3,0.4-0.5,0.4c-0.1,0.1-0.5,0.1-0.7,0.1c-0.6,0.2-1.3,0.5-2.1,0.5
			c-0.6-4.3-0.6-8.8-1.1-12.7c0.4-0.1,1,0,1.3-0.2c0.3,0.2,0.5,0.5,0.8,0.8c0,0.6-0.6,0.9-0.6,1.5c-0.1,1.1,1.2,2,2.1,1.8
			c0.7-0.1,0.7-0.7,1.1-1.2c0.5,0,0.7,0.5,1,0.7c0.4,0.2,0.9,0.3,1.2,0.6C43,72.5,43,73.1,43.8,73.6z"/>
		<path style="fill:#333E48;" d="M43.1,67.1c0.3,1.2,1,1.8,1.6,2.7c-0.3,1-0.7,1.8-1.9,1.1c-0.7-0.4-1.4-1.3-2-1.3
			c0,0.2,0,0.5,0.1,0.7c-0.3,0.3-0.4,0.7-0.8,0.8c-1.4,0.3-2.4-2.1-0.9-2.7c0.2,0.5,0.8,0.7,1.2,1c0-0.5-1-0.6-1.2-1.2
			c-0.4-0.1-0.6-0.3-0.9-0.5c0-0.1,0-0.2,0-0.2c0.3-0.1,1.1,0,1.6-0.1c0.3,0.9,1.3,1.9,2.2,1.2c0.4-0.3,0.3-0.7,0.3-1.3
			C42.5,67.1,42.9,67.1,43.1,67.1z"/>
		<path style="fill:#333E48;" d="M39.8,25.6c0.5-0.1,0.7,0.1,0.9,0.2c-0.6,0.9-1.1,1.8-1.8,2.6c-0.3,0.9-0.9,1.5-1.4,2.3
			c-0.2,0.3-0.2,0.8-0.7,0.6c0.1-0.3,0.2-0.7,0.1-1.2C36.4,30,35.4,29.9,35,30c-0.1-0.6,0.5-1.2,0.9-1.5c0.3-1,1.3-1.5,1.3-2.8
			c-0.3,0-0.1,0.4-0.5,0.4c-0.6-0.5-1.1-1.8-0.6-2.6c0.7,0,1.2,0.7,1,1.6c0.1,0.1,0.4-0.2,0.6,0c0.1,1.3-0.7,1.9-0.9,3
			c0.3,0,0.5,0.3,0.8,0.3c0.7,0,1.1-0.9,1.1-1.7C39.1,26.4,39.5,26.1,39.8,25.6z"/>
		<path style="fill:#333E48;" d="M45.7,87.9c-0.3,0-0.5-0.4-0.7-0.6c-0.7-0.9-1.6-2-2.2-2.9c-0.6-0.6-1.3-1-1.7-1.8
			c0.1,0,0.1,0,0.2,0c0.4,0,0.5,0.4,0.9,0.4C43.3,84.4,45,85.9,45.7,87.9z"/>
		<path style="fill:#333E48;" d="M37.7,23c0.2-1.3,2.4,0,1.8,1.2C38.6,24.5,37.6,23.8,37.7,23z"/>
		<path style="fill:#333E48;" d="M39.7,30.9c0.1,1.6,0.4,3.3,0.4,4.3c-0.6,0.2-1.2,0-1.7,0c-0.5,0-1.2,0.3-1.7-0.1
			c-0.1-0.9,0.6-1.7,1-2.2c0.5-0.7,1.2-1.3,1.7-2C39.5,30.9,39.6,30.9,39.7,30.9z"/>
		<path style="fill:#333E48;" d="M41.5,52.6c0.1,0.1,0.1,0.3,0.1,0.5c-0.3,0.1-0.6-0.2-0.4-0.5C41.3,52.6,41.4,52.6,41.5,52.6z"/>
		<path style="fill:#333E48;" d="M40.9,45.1c-0.1,1.1,0.4,2.2,0.2,3.1c-0.1,0.3-0.3,0.4-0.4,0.7c-0.3,0.4-0.3,0.9-0.8,1.2
			c-0.1,0.2-0.2,0.8-0.4,0.6c-0.5-0.1,0-0.5-0.2-0.9c0.3-0.7-0.2-1.6,0-2.4c0.1-0.3,0.2-0.2,0.4-0.4c0.4-0.6,0.7-1.5,1.1-2
			C40.8,45,40.8,45.1,40.9,45.1z"/>
		<path style="fill:#333E48;" d="M40,35.9c0.2,1,0.4,2.6,0.3,3.1c-0.3,0.3-0.3-0.2-0.5-0.4c-0.6-0.7-1.8-1.4-2.6-2.1
			c-0.2-0.2-0.4-0.4-0.4-0.8C37.8,35.7,39,35.8,40,35.9z"/>
		<path style="fill:#333E48;" d="M41.2,50c0.2,1,0,1.8-0.6,2.2c-0.3-0.1-0.5-0.4-0.6-0.7C40.4,51.1,40.5,50,41.2,50z"/>
		<path style="fill:#333E48;" d="M40.2,40.7c0.5,0,0.6,1.3,0.2,1.5C40,41.9,40.1,41.1,40.2,40.7z"/>
		<path style="fill:#333E48;" d="M42,67.1c0.4,0.6,0.1,1.2-0.5,1.4c-0.4-0.2-1-0.3-1-1.1C40.7,67.1,41.4,67.2,42,67.1z"/>
		<path style="fill:#333E48;" d="M39.6,39.7c0.4,0.8,0,2.4,0.2,3.4c-0.3,0.7-1,1.1-1.1,2c-0.7-0.3-1.2-0.9-1.5-1.5
			c0.2-0.3,0.6-0.1,1-0.2c0.1,0,0.2-0.2,0.4-0.2c0.4-0.1,0.9,0.2,0.9-0.4c-0.1-0.3-0.6,0.1-0.7,0.1c-0.5-0.2-0.8,0-1.3,0
			c-0.5-1.8-0.4-4-0.6-5.5c0.5,0.1,0.9,0.7,1.5,1.2C38.8,38.9,39.4,39.3,39.6,39.7z"/>
		<path style="fill:#333E48;" d="M43.1,80.3c0.1,0.7-0.6,0.8-0.9,1c-0.3,0.2-0.5,0.4-0.9,0.6c-0.1,0.1-0.2,0-0.2,0
			c-0.8,0.6-1.5,2.4-1.6,3.8c0,0.5,0.1,1.2,0.1,1.9c0,1.2-0.3,2.1-0.8,2.8c-0.3-0.8,0.1-1.5,0.2-2.2c0.2-1.1-0.1-2.3,0.1-3.3
			c0.1-0.5,0.6-0.9,0.5-1.4c0.7-1.3,2.1-2,3.2-3C42.9,80.3,43,80.3,43.1,80.3z"/>
		<path style="fill:#333E48;" d="M40.5,53.9c0.4,0.1,0.7,0.3,0.9,0.7c-1.1,2.1-2.4,3.9-3.8,5.7c-0.5-0.1-0.8,0.3-1.2,0
			c0.2-0.7,0.8-1.2,1.2-1.8c0.4-0.6,0.7-1.3,1.1-1.8c0.1-0.2,0.2-0.4,0.4-0.5c0.1-0.1,0.4-0.2,0.5-0.4c0.3-0.5,0.5-1.2,0.8-1.6
			C40.3,54,40.5,54,40.5,53.9z"/>
		<path style="fill:#333E48;" d="M38.9,52.4c0.6,0.1,1,0.5,1.1,0.9c0,0.6-1.4,1.7-1.4,2.5c-1.2,1.4-1.8,3.3-3.1,4.6
			c-0.7-0.1-1.4,0.1-2.1,0.1c0-0.6,0.6-1.3,0.8-2c-0.4,0.2-0.5,0.7-0.7,1.1c-0.8-0.1-1.2-0.8-1.8-1.1c0.3-0.5,1-0.5,1.5-0.7
			c0.6-0.2,1.1-0.7,1.6-0.6c0,0.5-0.2,0.8-0.4,1.1c0.3,0.1,0.3-0.3,0.4-0.4c0.1-0.1,0.3-0.2,0.4-0.4c0.2-0.3,0.3-0.7,0.5-0.9
			c0.5-0.7,1.3-1.1,1.8-1.7c0.1-0.2,0.3-0.5,0.4-0.8c0.2-0.2,0.4-0.5,0.5-0.7c0-0.1-0.1-0.2,0-0.3C38.5,52.8,38.7,52.6,38.9,52.4z"
			/>
		<path style="fill:#333E48;" d="M34.8,25.2c0.8,0.2,1.4,1.5,1,2.5c-0.4,0-0.3,0-0.7,0C34.6,27.1,34.3,25.9,34.8,25.2z"/>
		<path style="fill:#333E48;" d="M36,39c0.3,1,0.2,2.7,0.6,3.9c-0.7,0-1.1-0.4-1.6-0.9c-1.2-0.3-2.2-0.8-3.2-1.4
			c0-0.5,0.5-0.8,0.8-1.1c0.1-0.2,0.1-0.4,0.3-0.6c0.6-0.8,1.4-1.5,2-2.2c0.3,0,0.5,0.2,0.8,0.2c0,0.8,0.3,1.1,0.3,1.5
			c-0.5,0-0.9-0.2-1.2,0.2C35,39.1,35.5,39.2,36,39z M34.8,40.2c0.1-0.9-1-0.5-1.3-1c0,0,0.1-0.1,0-0.1c-0.1,0.2,0,0.6-0.1,0.8
			C33.8,40.2,34.4,40.7,34.8,40.2z"/>
		<path style="fill:#333E48;" d="M34.3,27.5c1,0.2,0.8,2.4,0,2.4C33.3,29.9,33.9,27.9,34.3,27.5z"/>
		<path style="fill:#333E48;" d="M33.7,23.7c0.4,0.7,0.3,1.8-0.2,2.2c-0.3,0.1-0.3-0.2-0.6-0.1c-0.1,1.5,0.9,2.6,0.6,3.9
			c-0.4,0.1-1.3,0.3-1.4-0.4c0.2-0.2,0.6-0.1,0.7-0.3c0-0.4-0.3,0-0.7-0.1c-0.3-0.3-0.8-0.5-0.8-1.3c0.3-0.4,0.7-0.2,1.1,0
			c0-0.2,0-0.5-0.1-0.7c-0.2-0.1-0.4,0.2-0.7,0c-0.2-0.4-0.6-0.9-0.4-1.5c0.1,0,0.1,0,0.2-0.1c0.5-0.1,0.6,0.2,0.9,0.4
			c0.1-0.6,0-1.9-0.4-2.4C31.8,23.1,32,23.1,32,23c0.6,0.2,0.5,1.2,0.7,1.8C33.2,24.5,32.9,23.7,33.7,23.7z"/>
		<path style="fill:#333E48;" d="M31.8,20.5c0.5,0.5,0.9,1.4,0.5,2.3C31,23,30.4,20.1,31.8,20.5z"/>
		<path style="fill:#333E48;" d="M31.5,23.6c0.1,0.3,0.5,0.7,0.3,1c-0.5,0.2-0.8-0.3-0.9-0.8C31,23.6,31.3,23.6,31.5,23.6z"/>
		<path style="fill:#333E48;" d="M30.6,36c0.7,0.4,1.9,0.2,2.5,0.4c-0.4,0.7-0.9,1.2-1.2,1.9c-0.6,0.4-0.7,1.2-1.4,1.5
			C30.3,38.8,30.9,37.3,30.6,36z"/>
		<path style="fill:#333E48;" d="M29.7,29.5c0.2-0.6,1.7-1.1,1.7,0C31.1,29.7,30.1,29.6,29.7,29.5z"/>
		<path style="fill:#333E48;" d="M30.6,24.8c0.5,1-0.2,1.9-1.1,2.2c-0.3-0.2,0.1-0.6-0.2-0.7c-0.2,0.5-0.1,0.8-0.1,1.3
			c0.4-0.3,0.9-0.7,1.3-0.7c0.4,1.4-0.3,1.9-1.6,2.1c-0.2,0.2-0.1,0.6-0.3,0.8c-0.9,0.1-1.4,0.6-2,0.4c-1.6,0.6-3.1,1-4.2,2.3
			c-0.2,0-0.3,0-0.4,0.1c-0.6,0.9-1.3,1.7-1.8,2.7c-0.7-0.3-0.2-1.3,0.2-1.7c-0.9-0.1-1.3,1.4-2.3,0.7c-0.2-0.5,0.4-1,0.8-1.2
			c-1.4-0.6-3.1-1.3-5-1.1c-0.3,0-0.6,0.1-0.9,0.2c-0.2,0-0.7,0.3-0.8-0.1c0.2-0.3,0.8-0.2,0.9-0.5c2.3-0.3,4,0.5,6.1,0.9
			c0.1-0.2-0.2-0.6-0.2-0.9C18,32,17.1,31.2,17,30.2c0.4-0.2,0.9,0,1.2,0.1c-0.6-1.7-2.1-2.2-4-2c0.2-0.4,0.7-0.2,1-0.4
			c-0.3-0.3-0.8-0.4-1.1-0.6c-0.1-0.5-0.1-0.5,0.1-0.8c0.8,0.1,1.8,0.3,1.8,1.2c0.3,0.2,0.7,0.3,1.1,0.5c0-0.4-0.7-1.2-0.3-1.9
			c1.2-0.2,1.8,1.7,1.1,2.5c0.1,0.4,0.5,0.5,0.8,0.9c0.5,0.7,0.8,1.8,1.3,2.4c0.4,0.5,1.3,1,1.8,0.3c0.1-0.8,0.5-1.5,1.3-1.7
			c0.3-0.1,0.5,0.1,0.7-0.1c0.1-0.5-0.9-0.6-0.7-1.5c0.4-0.4,1,0,1.4,0c-1.3-1.1-2.6-2.1-3.1-4.3c-0.1-0.2-0.2-0.4-0.4-0.5
			c0-0.8-0.6-1.6-1.1-2c-0.2,0.1,0.3,0.4,0.1,0.6c-0.5,0.5-1.6,0.4-2-0.2c0.2-0.4,0.5-0.7,1.2-0.7c-0.2-0.5-1.2-0.8-1.7-0.8
			c-0.2,0.1,0,0.6-0.3,0.8c-0.5,0.2-1,0.4-1.7,0.4c-0.1-0.4,0.1-0.5,0.2-0.8c0.3-0.1,0.6-0.2,1-0.3c-0.5-0.3-1.5,0-2.1-0.2
			c-0.3-0.1-0.5-0.3-0.9-0.5c-0.7-0.4-1.9-0.7-1.8-1.7c0.6,0.1,0.8,0.7,1.2,1c0.6,0.4,1.9,0.9,2.9,0.7c-0.3-0.5-1.3-0.6-1.1-1.3
			c0.8-0.4,1.4,0.4,1.7,0.8c0,0.3-0.3,0.3-0.6,0.3c0.6,0.2,1.2,0.2,1.9,0.2c0.3-0.1-0.1-0.5,0.2-0.7c0.9,0,1.6,0.4,1.8,1.5
			c0.8,0.6,1.4,1.5,1.8,2.6c0.4-0.2,0.4-0.9,0.7-1.1c1,0.1,0.6,2.2,0.1,2.5c0.6,1.2,1.5,1.8,2.5,2.5c0.1-0.4-0.3-1.4,0.2-1.6
			c0.8,0.2,1.5,1.6,1.1,2.3c0.2,0.4,1,0.3,1.1-0.2c-0.3-0.6-1.1-1.5-0.5-2.3c0.6-0.1,0.6,0.5,1,0.7c0.3-0.4,0.3-1,0.4-1.7
			c-0.1-0.2-0.6,0-0.8,0c-0.2-0.4-0.6-0.5-0.8-0.9c0.3-0.5,1.2-0.5,1.6-0.1c0.3-0.8-0.3-1.6-0.7-2.3c-0.2-0.5-0.5-0.9-0.8-1.3
			c-0.6-0.8-1.4-1.5-1.5-2.7c0.4,0.2,0.5,0.7,0.7,1c0.7,0.9,1.6,1.9,2.2,3c0.5-0.7,0.9-1.8,0.4-2.8c0.6-0.1,0.5,0.6,0.5,0.9
			c0.1,1-0.5,1.6-0.5,2.5c0,1.1,0.6,2.1,0.5,3.3C29.6,25.6,29.8,24.9,30.6,24.8z"/>
		<path style="fill:#333E48;" d="M31.3,59.3c0.4,0.5,1.4,0.3,1.4,1.4c-1.1,0-1.9,0.3-2.8,0.2C30.3,60.3,30.3,59.4,31.3,59.3z"/>
		<path style="fill:#333E48;" d="M30,36.3c0.8,1.2-0.1,2.6,0.3,3.7c-0.3,0.3-1-0.4-1.4-0.7c-0.2-0.2-0.5-0.3-0.6-0.4
			c-0.3-0.4-0.3-0.9,0-1.4c0.4,0,0.4,0.5,0.6,0.8c0.3,0,0.5-0.2,0.7-0.3c-0.2-0.5-0.7-0.7-1.1-1C28.7,36.5,29.4,36.2,30,36.3z"/>
		<path style="fill:#333E48;" d="M30.7,49.1c0.5,0.4,0.4,1.8-0.1,2.1c-0.6-0.3-0.3-1.4-0.3-2.1C30.4,49.1,30.5,49.1,30.7,49.1z"/>
		<path style="fill:#333E48;" d="M29.6,48.2c0.1,1.4,0.3,2.1,0.3,3.5c-0.3,0.2-0.7,0.5-1.3,0.5c-0.2-0.1-0.3-0.4-0.5-0.4
			c0.2,0.2,0.2,0.3,0.1,0.6c-1.4,0-2.9,0-3.8-0.6c0-0.5,0.3-0.8,0.4-1.3c0.4,0,0.6-0.1,0.9-0.2c-0.5-0.7,0.6-1.1,0.7-1.8
			c0.4-0.1,0.6-0.1,0.9,0c0.1,0,0.3,0.2,0.8,0.2c0.2,0,0.4,0,0.6-0.1c-0.6-0.3-1.2-0.2-1.8-0.3C27.1,46.7,28.9,47.9,29.6,48.2z"/>
		<path style="fill:#333E48;" d="M24.5,21.6c1.2-0.6,1.8,1.2,1.3,2.2C25,23.4,24.4,22.9,24.5,21.6z"/>
		<path style="fill:#333E48;" d="M25.7,59.1c1.3,0.1,2.2-0.3,3.7-0.2c-0.5,0.6-1,1.3-1.4,2c-0.9,0.1-1.8,0.4-2.4,0.2
			C25.6,60.4,25.3,59.5,25.7,59.1z"/>
		<path style="fill:#333E48;" d="M28.2,69.4c0,1.1,0.3,1.9,0.2,2.6c-0.1,0.6-0.7,1.1-1,1.7c-0.2,0.4-0.2,0.8-0.6,1
			c-0.4-0.2-0.6,0-1.1,0.2c-0.3-0.2-0.5-0.2-0.8-0.3c-0.1-0.5,0.3-0.8,0.5-1.1c0.2-0.3,0.3-0.7,0.6-1c0.6-1.1,1.3-2.2,2-3.2
			C28.2,69.3,28.2,69.3,28.2,69.4z"/>
		<path style="fill:#333E48;" d="M23.9,24.9c0.7-0.1,1.1,1.6,0.6,2.3C23.4,27.1,23.3,25.6,23.9,24.9z"/>
		<path style="fill:#333E48;" d="M28.6,74c0.1,2.1,0.5,4.6,0.5,6.7c-0.5,0.2-1.1,0-1.7,0c-0.4,0-0.7,0.1-1.1,0.1
			c-0.1,0-0.3-0.2-0.5-0.2c-0.6-0.1-1.3,0.2-1.9,0.2c-0.5,0-1-0.3-1.4-0.2c0-0.3,0.4-0.3,0.6-0.3c0-0.5,0.6-0.5,0.5-1
			c0.3-0.2,0.4,0,0.6-0.1c0.1-0.3-0.1-0.3-0.1-0.6c0.2,0,0.2-0.2,0.5-0.1c0-0.4,0-0.8,0.4-0.9c0.2-0.8-0.5-1.2-0.2-1.9
			c-0.3,0-0.6,0.2-1,0.2c0.3-0.6,1.4-0.4,1.9-0.6c0.9-0.3,2.2-0.5,2.8-1.3C28.5,74,28.5,74,28.6,74z"/>
		<path style="fill:#333E48;" d="M28.9,81.1c0.6,1.9,0.4,4.2,0.7,6.5c-1.2-0.1-2.8,0-3.7-0.2c0.2-0.4,0-0.4-0.1-0.7
			c0.2,0,0.2-0.1,0.3-0.1c-0.1-0.1-0.3-0.1-0.4-0.2c0.1-0.3-0.1-0.8,0.3-0.8c-0.1-0.2-0.3-0.2-0.3-0.6c0.1-0.1,0.3-0.2,0.5-0.2
			c-0.3-0.4-0.2-0.6-0.7-0.8c0.1-0.3,0.3-0.4,0.1-0.8c1-0.3,0.2-1.1-0.1-1.6c-0.1-0.1-0.4-0.1-0.5-0.2
			C26.1,80.9,27.7,81.6,28.9,81.1z"/>
		<path style="fill:#333E48;" d="M24.7,68.5c1.1,0.2,2.6-0.4,3.4-0.1c-0.2,0.5-0.6,0.9-0.7,1.5c-0.7,0.6-0.9,1.7-1.7,2.3
			c-0.1,0.2-0.3,0.7-0.4,0.7c-0.1,0.2-0.4,0-0.4-0.3c-0.2,0-0.4-0.1-0.6-0.1c-0.3-0.7-1.1-0.6-1.5-1.1
			C23.3,70.2,24.1,69.4,24.7,68.5z"/>
		<path style="fill:#333E48;" d="M25.5,46.5c-0.1,0.3-0.3,0.6-0.6,0.8c-0.2,0.6-0.5,1.3-0.9,2c-0.3,0.5-0.6,1-0.8,1.4
			c-0.2,0.4-0.6,0.6-1.1,0.8c-0.3,0-0.5-0.3-0.7-0.1c-0.2,0.4,0,1.2-0.4,1.5c-0.4-0.1-0.4-0.6-0.6-0.8c-0.1,0.1-0.4,0.1-0.5,0.2
			c0.6,0.7,0.7,2.3-0.2,2.9c-0.1-0.5-0.5-0.7-0.7-1c-0.1-0.7,0.1-1.2,0.5-1.7c-0.4-0.1-1.2,0.2-1.6,0.4c0.4,0.5,1.5,2.9,0,3.3
			c-0.4-0.8-0.7-2-0.4-2.9c-0.2,0-0.8,0.2-1.1,0.4c0.5,0.5,0,1.6-0.4,1.9c-0.5-0.3-0.3-1.1-0.1-1.5c-0.6,0.3-1,0.7-1.3,1.3
			c-0.7,0.1-0.7,0.8-1.2,1c0.5,0.5,0.2,1.5-0.3,1.8c-0.1,0-0.2-0.1-0.3-0.1c-0.1-0.6,0.1-0.9,0.2-1.3c-0.9,0.1-1.8,0.9-3,1
			c-0.5,0-1,0-1.5-0.1c0.6-0.4,1.3-0.1,2.2-0.4c2.1-0.5,3.2-2,4-3.6c-0.3-0.1-0.6,0.3-1,0.4c-0.6,0.1-2,0.2-2-0.4
			c1.6,0.4,2.7-0.3,3.9-1c-0.8-0.3-1.5-0.9-2.2-1.5c-0.1-0.1-0.2-0.3-0.3-0.3c-0.9-0.6-1.7,0.1-2.1,1.1c0.7,0.8-0.3,2-1.2,1.9
			c-0.1-0.2,0-0.7,0.2-0.9c-0.6,0.3-1.3,0.3-1.7,0.6c0.1,0.2,0.5,0,0.4,0.4c-0.2,0.5-0.4,0.9-1.2,0.9c0-0.4,0.1-0.7,0.2-0.9
			c-0.1-0.2-0.4,0.3-0.6,0.1c0-0.3,0.2-0.4,0.4-0.5c-0.2-0.1-0.6,0-0.8-0.3c-0.1-0.5,0.4-0.6,0.9-0.6C7.9,52.9,8,53,8,53.4
			c0.5-0.2,1.2-0.2,1.5-0.6c-0.1-0.2-0.8-0.1-0.9-0.7c0.3-0.5,1.5-0.6,1.9-0.2c0.3-0.3,0.7-0.7,0.8-1.1c-0.8-0.2-1.5,0.4-2.4,0.5
			c-1.3,0.1-2.6-0.2-3.3-0.9c0.3-0.4,0.6,0,0.8,0.2c1.8,0.7,3.7-0.5,5.7-0.5c0-0.4-0.3-0.4-0.3-0.7c-0.3,0-0.2,0.4-0.5,0.5
			c-0.9-0.1-1.6-0.5-1.8-1.3c0.5-0.1,0.8,0,1.3,0c-0.3-0.7-1.2-0.3-1.6-0.7c0-0.2,0.2-0.2,0.1-0.4c0.7,0,1.4,0.2,1.9,0.6
			c0.2-0.5-0.2-1.4,0.4-1.6c0.3,0.1,0.6,0.5,0.7,0.8c0.1,0.4,0,1.1-0.3,1.4c0,0.3,0.4,0.2,0.5,0.5c0.3-0.1,0.1-0.7,0.3-0.9
			c0.8,0.1,1.2,1.8,0.5,2.3c0.2,0.7,0.8,0.8,1.3,1.1c-0.2-0.7-0.9-1.4-0.6-2.2c0.9,0.3,1.6,0.8,1.7,2c0,0.3-0.2,0.4-0.5,0.5
			c1.1,0.8,3.4,0.2,4.7-0.4c-0.1-0.4-0.5-0.6-1-0.7c-0.3-0.6-1-0.8-1.5-1.2c-1,0.3-1.9-0.1-2.3-0.8c0.2-0.5,0.9-0.2,1.4-0.2
			c0-0.3-0.5-0.9-0.7-1.3c-0.8-0.1-1.7-0.2-1.8-1.2c0.4-0.1,0.6-0.2,1-0.1c-0.4-1.1-2.2-1.4-3.6-1.1c-0.1,0.9-0.6,1.8-1.8,1.6
			c0-0.7,0.4-1,0.8-1.3c-0.7-0.3-1.5-0.5-2.4-0.5c-0.6-0.4-1.1-0.8-1.8-1.2c-0.3-0.7-1.1-0.8-1.1-1.9c0.8,0.5,1.1,1.7,2.1,2
			c-0.1-0.2-0.3-0.5-0.1-0.7C8,42.4,9,43.3,8.6,44c0.6,0.6,1.8,0.6,2.7,0.3c-0.3-0.6-0.8-1-1.1-1.6c-0.3,0.1,0,0.2-0.2,0.3
			c-0.4-0.2-0.6-0.1-0.8,0.2C8.6,43,7.8,42.9,7.8,42c0.4-0.3,0.9-0.6,1.4-0.5c-0.3-0.7-1.1-0.8-1.8-1c0.1,0.4,0.5,0.4,0.7,0.6
			C8,42.1,6.6,41.8,6,41.4c0.2-0.5,0.6-0.9,1.2-0.8c-0.8-0.5-2,0-2.9-0.2c-0.6,0.6-1.8,0.5-2.3,0c0.2-0.9,1.5-0.2,2-0.3
			c-0.3-0.4-0.9-0.4-1.1-0.9c0.4-0.5,1.6,0,1.9,0.6c0.3,0,0.3-0.1,0.6-0.1c-0.2-0.4-0.6-0.6-0.6-1.3c0.8,0.1,1.4,0.4,1.6,1.3
			c0.3,0.1,0.6,0.1,0.9,0.2c0.1-0.2-0.5-0.9-0.1-1.3c0.8,0.1,1.2,0.8,1.5,1.4c0.2,0.3-0.3,0.1-0.2,0.3c0.2,0.5,0.9,0.5,1.2,0.8
			c0.1-0.2-0.4-1.2,0-1.5c0.7,0,1.3,0.9,1.4,1.9c-0.1,0.1-0.2,0.1-0.4,0.1c0.2,0.6,0.7,0.9,1,1.4c-0.1-0.3-0.3-1.5-0.1-2
			c1.5-0.4,1.8,1.9,1.1,2.6c0.5,0.6,1.5,0.5,2.2,0.7c0.2-0.2,0.1-0.5,0-0.7c-0.2-1.5-0.6-3.3-1.4-4.3c-1,0.2-2.4,0.1-3.1-0.6
			c-0.2,0.1-0.1,0.4-0.4,0.5c-0.5-0.1-1-0.3-1.3-0.7c0-0.6,0.9-0.3,1.2-0.3c-0.1-0.4-0.5-0.8-0.1-1.1c0.5,0.4,0.8,1.3,1.6,1.4
			c-0.1-0.2-1.1-1.2-0.5-1.7c0.5,0.3,0.9,0.7,1,1.3c0,0.3-0.2,0.3-0.4,0.4c0.3,0.3,1.1,0.4,1.6,0.1c-0.4-0.6-1-1.1-1.3-1.9
			c-0.2,0.1-0.2-0.1-0.3-0.1c-0.3-0.1-0.7,0-1.1-0.2c-0.4-0.1-1-0.5-1.4-0.6c-0.5-0.2-0.9-0.2-1.5-0.1c-0.1-0.3-0.3,0.1-0.3-0.2
			c-0.1,0.1-0.1,0.2-0.2,0.2c-1-0.2-1.3,0.2-2.2,0.4c0-0.4,0.6-0.6,0.9-0.7c0.9-0.2,2,0,2.6-0.1c-0.2-0.5,0.1-1.3,1.1-1.3
			c-0.2-0.4-0.6-0.4-1-0.7c0.2,0.6-1.2,1.6-1.5,0.8c-0.2-0.6,0.6-1,1.4-0.9c-0.8-0.7-1.8-0.8-2.6-1.3c0-0.2,0-0.3,0-0.5
			c0.2,0,0.3,0.3,0.4,0.4c1.5,0.3,2.6,1.1,3.8,1.8c-0.3-0.4-1-1.4-0.3-1.9c0.8,0.1,1,0.9,1.1,1.8c-0.2,0-0.4,0-0.7,0.1
			c0.3,0.7,0.9,1,1.3,1.5c0.3-1.6-0.5-3.1-1.2-4.3c1.2,0.6,1.5,2.4,1.7,4.3c0.3-0.4,0.2-1.1,0.6-1.4c1.2,0.2,1,2.2,0.1,2.5
			c-0.3,0-0.4-0.3-0.5-0.5c-0.2,1.1,0.7,1.6,1.3,2.3c0.5,0.6,0.7,1.4,1.2,2c0.2-0.6,0.1-1.4,1-1.3c0.5,0.7,0,1.6-0.2,2.2
			c-0.2,0-0.3,0-0.5,0c0.1,0.5,0.3,1,0.5,1.4c0.7-1.1,1.3-2.3,1.6-3.8c-0.2-0.1-0.2,0.1-0.5,0c-0.4-0.4-0.9-1.2-0.7-2.1
			c0.6,0.1,1.1,0.3,1.2,1.1c0.6-0.7-0.4-1.9-0.1-2.4c0.6,0,0.5,0.9,0.7,1.3c0.4-0.1,0.2-0.7,0.8-0.6c0.5,0.6,0.2,1.8-0.1,2.2
			c-0.9-0.1-0.7,0.7-0.7,1.1c0.6-0.1,1.2-0.7,1.5-1.3c0-0.3,0-0.7,0.4-0.6c0,0.5-0.1,1-0.1,1.5c-0.4,0.3-0.8,0.6-1.2,0.8
			c0.3,0.2,0.7,0,1.2,0.2c0.1,0.3,0.2,0.8,0.1,1.1c-0.8,0-1.5,0.1-2.1,0.1c-0.2,0.1-0.2-0.2-0.2-0.3c-0.3,0.2-0.5,0.5-0.6,0.9
			c0.2,0,1.3-0.4,1.6,0c0.1,0.8-1.4,1.8-2.1,1.2c-0.4,0.5-0.3,1.6,0.1,2.2c0.5-0.2,0.4-0.8,0.7-0.9c0.5-0.2,0.8,0.2,1,0.6
			c0.2,0.8-0.6,1.5-1,2c0.2,0.4,0.4,0.8,0.8,0.9c0.3-0.8,0.9-1.3,1.8-1.5c0.1,0.3,0.3,1.6,0,2c0.3-0.2,0.4-0.5,0.9-0.5
			c0.5,0.6,0.3,1.7-0.1,2.1c1.6-0.2,3.1-1.1,3.5-2.5c-0.7-0.3-1-1-1.3-1.5c-0.6,0-0.9,0.7-1.6,0.7c-1.1,0-0.7-1.2,0.3-1.3
			c-0.1-0.4-0.5-0.3-0.6-0.8c0.1-0.1,0.2-0.1,0.2-0.2c0.5,0.2,0.8,0.7,1.2,1c0.3,0.2,0.7,0.3,1,0.6C24.3,45.6,24.6,46.4,25.5,46.5z
			 M23.5,46.2c0.2,0.2,0.4,0.5,0.9,0.4C24.3,46.2,23.7,46.1,23.5,46.2z M19.5,48.6c-0.3,0-0.5,0.8-0.1,0.5
			C19.2,49.1,19.5,48.8,19.5,48.6z M12.1,35.8c0.3,0.1,0.2-0.5,0-0.3C12.1,35.7,12.2,35.7,12.1,35.8z M9.8,35.7
			c0.5,0.2,0.9,0.5,1.7,0.3c-0.4-0.8-0.8-1.4-1.5-1.8c-0.1,0.5-0.4,0.8-1,0.9C9.2,35.4,9.5,35.6,9.8,35.7z M11.4,48.8
			c-0.1-0.2-0.2-0.4-0.4-0.5C11.1,48.6,11.3,48.8,11.4,48.8z M10.8,52.4C10.5,52.7,11.1,52.6,10.8,52.4L10.8,52.4z"/>
		<path style="fill:#333E48;" d="M20.5,27.5c0.9-0.4,2.4-0.8,2.4,0.7C22.1,28.6,20.7,28.5,20.5,27.5z"/>
		<path style="fill:#333E48;" d="M24.4,46.6c-0.5,0.1-0.7-0.2-0.9-0.4C23.7,46.1,24.3,46.2,24.4,46.6z"/>
		<path style="fill:#333E48;" d="M21.5,20.6c0.7,0.3,0.6,1.5,0.3,2.1C21.1,22.7,20.9,20.9,21.5,20.6z"/>
		<path style="fill:#333E48;" d="M24.2,59c0.5,0.5,0.2,1.4,0.4,2.1c-0.9,0.4-1.9,0.3-3,0.4c-0.3,0.1,0,0.6-0.4,0.6
			c-0.9-0.8-1.9-1.5-2.9-2.1c0.5-1.3,1.6-2.2,2.3-3.4c0.1,0.1,0.2,0.1,0.3,0.1c0,0.4,0,0.9,0,1.3C21.7,58.7,22.9,58.9,24.2,59z"/>
		<path style="fill:#333E48;" d="M21.7,26.2c-0.1,0.1-0.2,0.1-0.2,0.3c-1,0-1.6-0.4-2.1-1C19.9,24.5,21.3,25.5,21.7,26.2z"/>
		<path style="fill:#333E48;" d="M20.3,29.1c0.6,0.2,1.5,0.9,1.5,1.7c0,0.4-0.3,1.2-0.6,1.3c-1.1,0.3-1.3-1.9-1-2.8
			C20.1,29.2,20.3,29.2,20.3,29.1z"/>
		<path style="fill:#333E48;" d="M19.7,23.9C20,23,21,23.8,21,24.4C20.4,24.8,20.1,24,19.7,23.9z"/>
		<path style="fill:#333E48;" d="M20.7,43.2c0.2-0.1,0.2,0.1,0.2,0.2c-0.1,0-0.1-0.1-0.2-0.1C20.8,43.3,20.8,43.2,20.7,43.2z"/>
		<path style="fill:#333E48;" d="M21.8,68.6c0.6,0,1.1-0.3,1.4,0c-0.6,1.1-1.6,1.9-2.2,3c-0.4-0.4,0.5-0.9,0.5-1.4
			c-0.4,0.1-0.6,0.2-1.1,0c-0.1-0.3,0.2-0.2,0.2-0.4c-0.5,0-0.5-0.6-1.1-0.5c-0.1-0.2-0.3-0.2-0.3-0.5c-0.3,0-0.4-0.1-0.7,0
			c-0.1-0.5-0.3-0.5,0-0.9c-0.1-0.5-0.7-0.3-0.7-0.8c-0.8,0.1-1.4,0.2-2,0.2c0-0.5,0.8-0.4,1.2-0.4c0.5-0.1,1.1,0,1.6-0.1
			c0.8-0.1,1.8-0.4,2.9-0.4C21.6,66.9,21.6,67.9,21.8,68.6z"/>
		<path style="fill:#333E48;" d="M20.1,42.6c0.1,0.5,0.8,0.8,0.9,1.7c-0.2,0-0.3,0.2-0.6,0.1c0.1,0.2,0.2,0.4,0.3,0.6
			c-0.8,0.4-1.7,0-2.1-0.6c0-0.5,0.6-0.4,1-0.4c-0.1-0.4-0.5-0.5-0.6-1C19.4,42.8,19.6,42.5,20.1,42.6z"/>
		<path style="fill:#333E48;" d="M21.3,64.1c0.1,0.6,0.2,1,0.2,1.6c-0.8,0-1.5,0.1-2.3,0.2c-0.4,0-0.9-0.1-1.2-0.1
			c-0.5,0-1.2,0.6-1.5,0c0.2-0.1,0.5-0.1,0.8-0.2c0.1-0.7,0.5-1.3-0.2-1.8c0.3-0.3,1.7,0,2.2-0.4c-0.8-0.2-1.4-0.2-2.3-0.1
			c0.2-0.3,0.6-0.2,0.9-0.2c0.7,0,1.4,0.1,2.1,0.1C20.4,63.5,20.6,64,21.3,64.1z"/>
		<path style="fill:#333E48;" d="M19.4,49.1c-0.4,0.3-0.2-0.5,0.1-0.5C19.5,48.8,19.2,49.1,19.4,49.1z"/>
		<path style="fill:#333E48;" d="M15.8,33.8c0.1-1.2,1.2-1.4,1.9-0.7C17.5,33.6,16.5,34.2,15.8,33.8z"/>
		<path style="fill:#333E48;" d="M14.5,30c1-0.5,2.1,0.7,2.1,1.5c-0.3,0.1-0.3-0.2-0.4-0.2C15.4,31.7,14.5,30.8,14.5,30z"/>
		<path style="fill:#333E48;" d="M14.1,30.8c-0.2,1.1-2,0.3-2.3-0.3c0-0.1,0.1-0.2,0.1-0.3C12.7,30,13.7,30.3,14.1,30.8z"/>
		<path style="fill:#333E48;" d="M12.1,35.5c0.2-0.1,0.3,0.4,0,0.3C12.2,35.7,12.1,35.7,12.1,35.5z"/>
		<path style="fill:#333E48;" d="M11.1,48.4c0.2,0.1,0.3,0.2,0.4,0.5C11.3,48.8,11.1,48.6,11.1,48.4z"/>
		<path style="fill:#333E48;" d="M8.6,30.6C9.1,31.2,9.2,32,9,32.6c-0.8,0.1-0.8-0.7-1.3-1.1C7.9,31,7.9,30.6,8.6,30.6z"/>
		<path style="fill:#333E48;" d="M10.8,52.4C11.1,52.6,10.5,52.7,10.8,52.4L10.8,52.4z"/>
		<path style="fill:#333E48;" d="M10.5,59.5c-0.6-0.6,0.2-1.9,1-1.3C11.3,58.8,10.8,59,10.5,59.5z"/>
		<path style="fill:#333E48;" d="M9.5,37.6c-0.4,0.5-1-0.2-1.1-0.8C8.9,36.5,9.3,37.1,9.5,37.6z"/>
		<path style="fill:#333E48;" d="M7.9,45.5c0.7-0.1,1.8,0.9,1.3,1.7c-0.2,0.1-0.2-0.1-0.4,0c-0.2,0.1,0.4,0.2,0.2,0.6
			c-0.7,0.4-2.2,0.3-2-0.6c0.6,0,0.9-0.4,1.4-0.2C8.2,46.5,7.6,46,7.9,45.5z"/>
		<path style="fill:#333E48;" d="M6,30.1c0.8,0,1.3,0.8,1.3,1.5C6.4,32,5.6,30.9,6,30.1z"/>
		<path style="fill:#333E48;" d="M6.9,32.8c0,0.4-0.6,0.4-0.9,0.5c0-0.2-0.3-0.2-0.3-0.4C5.8,32.3,6.6,32.5,6.9,32.8z"/>
		<path style="fill:#333E48;" d="M8.1,45c-0.2,0.7-1.3,0.7-1.9,0.5C6,44.4,7.8,44.1,8.1,45z"/>
		<path style="fill:#333E48;" d="M4.2,30.7c0.1-0.9,1.7,0.1,1.6,0.9C5.1,32.2,4.1,31.1,4.2,30.7z"/>
		<path style="fill:#333E48;" d="M6.9,54.4c0.2,0.7-0.9,1-1.2,0.6C5.8,54.6,6.5,54.2,6.9,54.4z"/>
		<path style="fill:#333E48;" d="M6.6,43.9c-0.5,0.9-2.2,0.5-2.4-0.4C4.8,42.7,6.2,43.3,6.6,43.9z"/>
		<path style="fill:#333E48;" d="M5.3,42.6C4.2,43,3.5,42.1,3,41.4C3,41.3,3.1,41.2,3.2,41C4.1,41.2,4.8,41.8,5.3,42.6z"/>
		<path style="fill:#333E48;" d="M0,41.4c0.1-0.8,1.3-0.9,1.8-0.4C1.6,41.7,0.5,41.9,0,41.4z"/>
	</g>
	<g>
	</g>
</g>
</svg>