<svg version="1.1" id="SIMPLE_TRUTH" xmlns="http://www.w3.org/2000/svg" xmlns:xlink="http://www.w3.org/1999/xlink" x="0px"
	 y="0px" viewBox="0 0 365.4 179.5" style="enable-background:new 0 0 365.4 179.5;" xml:space="preserve">
	<rect x="61.7" y="1.5" style="fill:#FFFFFF;" width="22.8" height="82.9"/>
	<path style="fill:#FFFFFF;" d="M171.3,84.4l-4.5-27.6c-0.9-5.5-1.7-11.7-2.5-18.8H164c-1.3,7.2-2.9,14.1-5,21.7l-6.6,24.7H131
		l-6.5-22c-2.2-7.6-4.3-16.1-5.4-24.4h-0.2c-0.7,8.2-1.6,14.5-2.5,20.7L113,84.4H90l13.8-82.9h25.8l8.7,28.7
		c1.7,5.8,3.1,11.5,4.4,18.8h0.2c1.2-7,2.7-12.6,4.8-19.2l8.8-28.4h25l13.6,82.9H171.3z"/>
	<path style="fill:#FFFFFF;" d="M227,59c-0.5,0-1.8,0-3.4-0.1v25.5h-22.8V1.5c7.6-0.4,16-0.6,25-0.6c22.1,0,34.3,9.5,34.3,27.7
		C260,44.7,249.2,59,227,59z M225.7,19.4c-0.4,0-1.2,0-2.2,0.1v20.3c0.9,0.1,1.4,0.1,1.7,0.1c5.9,0,12.6-3.7,12.6-10.6
		C237.8,24,233.6,19.4,225.7,19.4z"/>
	<polygon style="fill:#FFFFFF;" points="265.5,84.4 265.5,1.5 288.3,1.5 288.3,64 311.2,64 311.2,84.4 "/>
	<polygon style="fill:#FFFFFF;" points="316.6,84.4 316.6,1.5 365.1,1.5 365.1,20.9 339.5,20.9 339.5,32.6 363.8,32.6 363.8,51.2 
		339.5,51.2 339.5,64.6 365.1,64.6 365.1,84.4 "/>
	<polygon style="fill:#FFFFFF;" points="43.7,112.4 43.7,179.5 19.5,179.5 19.5,112.4 0.5,112.4 0.5,91.6 62.8,91.6 62.8,112.4 "/>
	<path style="fill:#FFFFFF;" d="M113.1,179.5l-16.6-32.1h-3.9v32.1H68.4v-88C76.6,91,89,90.9,100,90.9c22.4,0,36.4,7.9,36.4,27.5
		c0,10.4-5.9,20.5-16,24.1c2.3,3.5,4.4,6.8,6.4,10.2l15.8,26.8H113.1z M98.7,110.9c-1.6,0-5.3,0.1-6.1,0.3V130
		c0.9,0.1,4.3,0.3,5.6,0.3c6.6,0,12.7-3.5,12.7-10C110.9,115,106.7,110.9,98.7,110.9z"/>
	<path style="fill:#FFFFFF;" d="M178.2,181.4c-28.3,0-35.7-15-35.7-33.6V91.6h24.2v55c0,9.4,2.9,14.5,12.9,14.5
		c9.8,0,12.9-4.2,12.9-15.1V91.6h24v53C216.5,170.1,201.8,181.4,178.2,181.4z"/>
	<polygon style="fill:#FFFFFF;" points="265,112.4 265,179.5 240.8,179.5 240.8,112.4 221.8,112.4 221.8,91.6 284,91.6 284,112.4 "/>
	<polygon style="fill:#FFFFFF;" points="341.1,179.5 341.1,144.9 314.8,144.9 314.8,179.5 290.6,179.5 290.6,91.6 314.8,91.6 
		314.8,123.6 341.1,123.6 341.1,91.6 365.4,91.6 365.4,179.5 "/>
	<path style="fill:#FFFFFF;" d="M3.1,61.2c16.5,8.1,28.2,5.7,28.5-0.7c0.2-4.4-3.4-6.7-13.3-10.6C4.1,44.4,0.4,37.5,0.5,25.9
		C0.6,11.3,13.3,0.1,31.8,0c7,0,17.8,2.4,21.8,3.4c0.1,0-2.9,19.9-2.9,19.9c-3.3-1.6-24.3-9.2-25.5,0.8c-0.4,3.2,1.6,4.9,11.8,9.3
		c14.4,6.2,19.5,13,19.2,24.7c-0.3,13.7-12,27.4-34.9,27.4c-9.5,0-16.6-1.1-21.3-3.7L3.1,61.2z"/>
</svg>
