<svg version="1.1" id="twitter" xmlns="http://www.w3.org/2000/svg" xmlns:xlink="http://www.w3.org/1999/xlink" x="0px" y="0px"
	 viewBox="0 0 28 28" style="enable-background:new 0 0 28 28;" xml:space="preserve">
<path id="circle" style="fill:none;stroke:#000000;stroke-miterlimit:10;" d="M27.5,14c0,7.5-6,13.5-13.5,13.5
	c-7.5,0-13.5-6-13.5-13.5c0-7.5,6-13.5,13.5-13.5C21.5,0.5,27.5,6.5,27.5,14"/>
<path id="logo-shape" d="M21.1,9.9c-0.3,0.1-0.6,0.1-0.9,0.2c0.6-0.4,1.1-1,1.4-1.7c-0.3,0.2-0.6,0.3-1,0.4c-0.3,0.1-0.7,0.2-1,0.3
	c-0.3-0.3-0.6-0.5-1-0.7c-0.4-0.2-0.8-0.3-1.3-0.3c-0.4,0-0.8,0.1-1.2,0.2c-0.4,0.2-0.7,0.4-1,0.7s-0.5,0.6-0.7,1s-0.2,0.8-0.2,1.2
	c0,0.2,0,0.5,0.1,0.7c-1.3-0.1-2.5-0.4-3.6-0.9c-1.1-0.6-2.1-1.4-2.8-2.3c-0.3,0.5-0.4,1-0.4,1.6s0.1,1.1,0.4,1.5
	c0.2,0.5,0.6,0.8,1,1.1c-0.3,0-0.6,0-0.8-0.1c-0.2-0.1-0.5-0.2-0.7-0.3v0c0,0.8,0.2,1.4,0.7,2c0.5,0.6,1.1,0.9,1.8,1.1
	c-0.1,0-0.3,0.1-0.4,0.1c-0.1,0-0.3,0-0.4,0c-0.2,0-0.4,0-0.6-0.1c0.2,0.6,0.6,1.1,1.1,1.5c0.5,0.4,1.1,0.6,1.8,0.6
	c-1.1,0.9-2.4,1.3-3.9,1.3c-0.1,0-0.3,0-0.4,0c-0.1,0-0.2,0-0.4,0c0.7,0.5,1.5,0.8,2.3,1.1c0.8,0.3,1.7,0.4,2.5,0.4
	c1.4,0,2.7-0.3,3.8-0.8c1.1-0.5,2-1.2,2.8-2.1c0.8-0.9,1.3-1.8,1.7-2.9c0.4-1.1,0.6-2.1,0.6-3.2v-0.4c0.6-0.5,1.1-1,1.6-1.6
	C21.7,9.7,21.4,9.8,21.1,9.9z"/>
</svg>
